<svg xmlns="http://www.w3.org/2000/svg" xmlns:svg="http://www.w3.org/2000/svg" id="svg2" width="430.971" height="189.586" version="1.1"><defs id="defs4"><marker id="Arrow2Lstart" orient="auto" refX="0" refY="0" style="overflow:visible"><path id="path3876" d="M 8.7185878,4.0337352 -2.2072895,0.01601326 8.7185884,-4.0017078 c -1.7454984,2.3720609 -1.7354408,5.6174519 -6e-7,8.035443 z" transform="matrix(1.1,0,0,1.1,1.1,0)" style="fill-rule:evenodd;stroke-width:.625;stroke-linejoin:round"/></marker><marker id="Arrow2Lstart-2" orient="auto" refX="0" refY="0" style="overflow:visible"><path id="path3876-4" d="M 8.7185878,4.0337352 -2.2072895,0.01601326 8.7185884,-4.0017078 c -1.7454984,2.3720609 -1.7354408,5.6174519 -6e-7,8.035443 z" transform="matrix(1.1,0,0,1.1,1.1,0)" style="fill-rule:evenodd;stroke-width:.625;stroke-linejoin:round"/></marker></defs><metadata id="metadata7"/><g id="layer1" transform="translate(-41.785713,-566.86218)"><rect style="fill:none;stroke:#000;stroke-width:1;stroke-linecap:butt;stroke-miterlimit:4;stroke-opacity:1;stroke-dasharray:none;stroke-dashoffset:0" id="rect2985" width="117.379" height="72.212" x="42.286" y="567.362"/><text style="font-size:12px;font-style:normal;font-weight:400;text-align:center;line-height:125%;letter-spacing:0;word-spacing:0;text-anchor:middle;fill:#000;fill-opacity:1;stroke:none;font-family:Sans" id="text3755" x="77.567" y="605.211" xml:space="preserve"><tspan id="tspan3757" x="77.567" y="605.211">I2S module</tspan></text><text style="font-size:12px;font-style:normal;font-weight:400;text-align:center;line-height:125%;letter-spacing:0;word-spacing:0;text-anchor:middle;fill:#000;fill-opacity:1;stroke:none;font-family:Sans" id="text3759" x="135.603" y="582.658" xml:space="preserve"><tspan id="tspan3761" x="135.603" y="582.658">MCKn</tspan></text><text style="font-size:12px;font-style:normal;font-weight:400;text-align:center;line-height:125%;letter-spacing:0;word-spacing:0;text-anchor:middle;fill:#000;fill-opacity:1;stroke:none;font-family:Sans" id="text3763" x="136.276" y="600.01" xml:space="preserve"><tspan id="tspan3765" x="136.276" y="600.01">SCKn</tspan></text><text style="font-size:12px;font-style:normal;font-weight:400;text-align:center;line-height:125%;letter-spacing:0;word-spacing:0;text-anchor:middle;fill:#000;fill-opacity:1;stroke:none;font-family:Sans" id="text3767" x="140.322" y="616.475" xml:space="preserve"><tspan id="tspan3769" x="140.322" y="616.475">FSn</tspan></text><text style="font-size:12px;font-style:normal;font-weight:400;text-align:center;line-height:125%;letter-spacing:0;word-spacing:0;text-anchor:middle;fill:#000;fill-opacity:1;stroke:none;font-family:Sans" id="text3771" x="138.393" y="633.322" xml:space="preserve"><tspan id="tspan3773" x="138.393" y="633.322">SDm</tspan></text><rect style="fill:none;stroke:#000;stroke-width:.99999994;stroke-linecap:butt;stroke-miterlimit:4;stroke-opacity:1;stroke-dasharray:none;stroke-dashoffset:0" id="rect2985-1" width="108.793" height="56.555" x="288.86" y="583.713"/><text style="font-size:12px;font-style:normal;font-weight:400;text-align:center;line-height:125%;letter-spacing:0;word-spacing:0;text-anchor:middle;fill:#000;fill-opacity:1;stroke:none;font-family:Sans" id="text3755-7" x="343.654" y="602.555" xml:space="preserve"><tspan id="tspan3757-4" x="343.654" y="602.555">EXTERNAL PDM</tspan><tspan id="tspan3814" x="343.654" y="617.555">MIC for</tspan><tspan id="tspan3816" x="343.654" y="632.555">Left Channel</tspan></text><rect style="fill:none;stroke:#000;stroke-width:.99999994;stroke-linecap:butt;stroke-miterlimit:4;stroke-opacity:1;stroke-dasharray:none;stroke-dashoffset:0" id="rect2985-1-0" width="108.793" height="56.555" x="288.555" y="660.392"/><text style="font-size:12px;font-style:normal;font-weight:400;text-align:center;line-height:125%;letter-spacing:0;word-spacing:0;text-anchor:middle;fill:#000;fill-opacity:1;stroke:none;font-family:Sans" id="text3755-7-9" x="343.348" y="679.234" xml:space="preserve"><tspan id="tspan3757-4-4" x="343.348" y="679.234">EXTERNAL PDM</tspan><tspan id="tspan3814-8" x="343.348" y="694.234">MIC for</tspan><tspan id="tspan3816-8" x="343.348" y="709.234">Right Channel</tspan></text><path style="fill:none;stroke:#000;stroke-width:1px;stroke-linecap:butt;stroke-linejoin:miter;stroke-opacity:1;marker-start:url(#Arrow2Lstart)" id="path3852" d="m 162.03416,629.8773 126.05782,0.12627"/><path style="fill:none;stroke:#000;stroke-width:1px;stroke-linecap:butt;stroke-linejoin:miter;stroke-opacity:1;marker-start:url(#Arrow2Lstart)" id="path3852-5" d="m 286.2056,595.42837 -125.57908,0.12627"/><text style="font-size:12px;font-style:normal;font-weight:400;text-align:center;line-height:125%;letter-spacing:0;word-spacing:0;text-anchor:middle;fill:#000;fill-opacity:1;stroke:none;font-family:Sans" id="text4322" x="222.281" y="591.584" xml:space="preserve"><tspan id="tspan4324" x="222.281" y="591.584">64 FS Serial Clock</tspan></text><text style="font-size:12px;font-style:normal;font-weight:400;text-align:center;line-height:125%;letter-spacing:0;word-spacing:0;text-anchor:middle;fill:#000;fill-opacity:1;stroke:none;font-family:Sans" id="text4326" x="210.917" y="625.424" xml:space="preserve"><tspan id="tspan4328" x="210.917" y="625.424">Serial Data In</tspan></text><path style="fill:#000;fill-opacity:1;stroke:#000;stroke-width:1;stroke-linecap:butt;stroke-miterlimit:4;stroke-opacity:1;stroke-dasharray:none;stroke-dashoffset:0" id="path4330" d="m 105.71429,107.5 c 0,0.98622 -0.79949,1.78571 -1.78572,1.78571 -0.98622,0 -1.78571,-0.79949 -1.78571,-1.78571 0,-0.98622 0.79949,-1.78571 1.78571,-1.78571 0.98623,0 1.78572,0.79949 1.78572,1.78571 z" transform="translate(101.01931,522.71932)"/><path id="path4332" d="m 105.71429,107.5 c 0,0.98622 -0.79949,1.78571 -1.78572,1.78571 -0.98622,0 -1.78571,-0.79949 -1.78571,-1.78571 0,-0.98622 0.79949,-1.78571 1.78571,-1.78571 0.98623,0 1.78572,0.79949 1.78572,1.78571 z" transform="translate(149.50851,487.83543)" style="fill:#000;fill-opacity:1;stroke:#000;stroke-width:1;stroke-linecap:butt;stroke-miterlimit:4;stroke-opacity:1;stroke-dasharray:none;stroke-dashoffset:0"/><path style="fill:none;stroke:#000;stroke-width:.99999994px;stroke-linecap:butt;stroke-linejoin:miter;stroke-opacity:1" id="path4722" d="m 253.38019,595.48818 0,76.6205"/><path style="fill:none;stroke:#000;stroke-width:1px;stroke-linecap:butt;stroke-linejoin:miter;stroke-opacity:1" id="path4722-5" d="m 204.92281,630.03698 0,76.35581"/><path id="path4742" d="m 286.80069,671.42837 -33.87783,0.12627" style="fill:none;stroke:#000;stroke-width:1px;stroke-linecap:butt;stroke-linejoin:miter;stroke-opacity:1;marker-start:url(#Arrow2Lstart)"/><path id="path4744" d="m 204.46057,705.8773 83.63141,0.12627" style="fill:none;stroke:#000;stroke-width:1px;stroke-linecap:butt;stroke-linejoin:miter;stroke-opacity:1;marker-start:none"/><text style="font-size:12px;font-style:normal;font-weight:400;text-align:center;line-height:125%;letter-spacing:0;word-spacing:0;text-anchor:middle;fill:#000;fill-opacity:1;stroke:none;font-family:Sans" id="text3019" x="89.579" y="731.841" xml:space="preserve"><tspan id="tspan3021" x="89.579" y="731.841">Serial Clock</tspan></text><text id="text3023" x="89.579" y="749.841" xml:space="preserve" style="font-size:12px;font-style:normal;font-weight:400;text-align:center;line-height:125%;letter-spacing:0;word-spacing:0;text-anchor:middle;fill:#000;fill-opacity:1;stroke:none;font-family:Sans"><tspan id="tspan3025" x="89.579" y="749.841">Serial Data In</tspan></text><text style="font-size:12px;font-style:normal;font-weight:400;text-align:center;line-height:125%;letter-spacing:0;word-spacing:0;text-anchor:middle;fill:#000;fill-opacity:1;stroke:none;font-family:Sans" id="text3107" x="185.393" y="752.952" xml:space="preserve"><tspan id="tspan3109" x="185.393" y="752.952">Right</tspan></text><text style="font-size:12px;font-style:normal;font-weight:400;text-align:center;line-height:125%;letter-spacing:0;word-spacing:0;text-anchor:middle;fill:#000;fill-opacity:1;stroke:none;font-family:Sans" id="text3111" x="227.786" y="752.988" xml:space="preserve"><tspan id="tspan3113" x="227.786" y="752.988">Left</tspan></text><g id="g3123" transform="translate(-25.285714,-8.9285715)"><path style="fill:none;stroke:#000;stroke-width:1px;stroke-linecap:butt;stroke-linejoin:miter;stroke-opacity:1" id="path3105" d="m 183.68925,750.72512 14.78631,14.15179"/><path id="path3117" d="m 198.47555,750.6358 -14.47063,14.24107" style="fill:none;stroke:#000;stroke-width:.99999994px;stroke-linecap:butt;stroke-linejoin:miter;stroke-opacity:1"/></g><g id="g3127" transform="translate(-25.285714,-8.9285715)"><path style="fill:none;stroke:#000;stroke-width:1px;stroke-linecap:butt;stroke-linejoin:miter;stroke-opacity:1" id="path3119" d="m 156.15253,750.76494 27.86484,0"/><path id="path3121" d="m 156.114,764.76494 28.20976,0" style="fill:none;stroke:#000;stroke-width:1px;stroke-linecap:butt;stroke-linejoin:miter;stroke-opacity:1"/></g><g id="g3034" transform="translate(-25.285714,-8.9285715)"><path id="path3036" d="m 156.15253,750.76494 27.86484,0" style="fill:none;stroke:#000;stroke-width:1px;stroke-linecap:butt;stroke-linejoin:miter;stroke-opacity:1"/><path style="fill:none;stroke:#000;stroke-width:1px;stroke-linecap:butt;stroke-linejoin:miter;stroke-opacity:1" id="path3038" d="m 156.114,764.76494 28.20976,0"/></g><g id="g3040" transform="translate(16.714286,-8.9285715)"><path id="path3042" d="m 141.68925,750.72512 14.78631,14.15179" style="fill:none;stroke:#000;stroke-width:1px;stroke-linecap:butt;stroke-linejoin:miter;stroke-opacity:1"/><path style="fill:none;stroke:#000;stroke-width:.99999994px;stroke-linecap:butt;stroke-linejoin:miter;stroke-opacity:1" id="path3044" d="m 156.47555,750.6358 -14.47063,14.24107"/></g><g id="g3046" transform="translate(16.714286,-8.9285715)"><path style="fill:none;stroke:#000;stroke-width:1px;stroke-linecap:butt;stroke-linejoin:miter;stroke-opacity:1" id="path3048" d="m 114.15253,750.76494 27.86484,0"/><path id="path3050" d="m 114.114,764.76494 28.20976,0" style="fill:none;stroke:#000;stroke-width:1px;stroke-linecap:butt;stroke-linejoin:miter;stroke-opacity:1"/></g><g id="g3064" transform="translate(-56,0)"><g id="g3052" transform="translate(72.714286,-8.9285715)"><path id="path3054" d="m 183.68925,750.72512 14.78631,14.15179" style="fill:none;stroke:#000;stroke-width:1px;stroke-linecap:butt;stroke-linejoin:miter;stroke-opacity:1"/><path style="fill:none;stroke:#000;stroke-width:.99999994px;stroke-linecap:butt;stroke-linejoin:miter;stroke-opacity:1" id="path3056" d="m 198.47555,750.6358 -14.47063,14.24107"/></g><g id="g3058" transform="translate(72.714286,-8.9285715)"><path style="fill:none;stroke:#000;stroke-width:1px;stroke-linecap:butt;stroke-linejoin:miter;stroke-opacity:1" id="path3060" d="m 156.15253,750.76494 27.86484,0"/><path id="path3062" d="m 156.114,764.76494 28.20976,0" style="fill:none;stroke:#000;stroke-width:1px;stroke-linecap:butt;stroke-linejoin:miter;stroke-opacity:1"/></g></g><g id="g3072" transform="translate(-14,0)"><g id="g3074" transform="translate(72.714286,-8.9285715)"><path style="fill:none;stroke:#000;stroke-width:1px;stroke-linecap:butt;stroke-linejoin:miter;stroke-opacity:1" id="path3076" d="m 141.68925,750.72512 14.78631,14.15179"/><path id="path3078" d="m 156.47555,750.6358 -14.47063,14.24107" style="fill:none;stroke:#000;stroke-width:.99999994px;stroke-linecap:butt;stroke-linejoin:miter;stroke-opacity:1"/></g><g id="g3080" transform="translate(72.714286,-8.9285715)"><path id="path3082" d="m 114.15253,750.76494 27.86484,0" style="fill:none;stroke:#000;stroke-width:1px;stroke-linecap:butt;stroke-linejoin:miter;stroke-opacity:1"/><path style="fill:none;stroke:#000;stroke-width:1px;stroke-linecap:butt;stroke-linejoin:miter;stroke-opacity:1" id="path3084" d="m 114.114,764.76494 28.20976,0"/></g></g><g id="g3086" transform="translate(-14,0)"><g id="g3088" transform="translate(72.714286,-8.9285715)"><path id="path3090" d="m 183.68925,750.72512 14.78631,14.15179" style="fill:none;stroke:#000;stroke-width:1px;stroke-linecap:butt;stroke-linejoin:miter;stroke-opacity:1"/><path style="fill:none;stroke:#000;stroke-width:.99999994px;stroke-linecap:butt;stroke-linejoin:miter;stroke-opacity:1" id="path3092" d="m 198.47555,750.6358 -14.47063,14.24107"/></g><g id="g3094" transform="translate(72.714286,-8.9285715)"><path style="fill:none;stroke:#000;stroke-width:1px;stroke-linecap:butt;stroke-linejoin:miter;stroke-opacity:1" id="path3096" d="m 156.15253,750.76494 27.86484,0"/><path id="path3098" d="m 156.114,764.76494 28.20976,0" style="fill:none;stroke:#000;stroke-width:1px;stroke-linecap:butt;stroke-linejoin:miter;stroke-opacity:1"/></g></g><g id="g3100" transform="translate(28,0)"><g id="g3102" transform="translate(72.714286,-8.9285715)"><path style="fill:none;stroke:#000;stroke-width:1px;stroke-linecap:butt;stroke-linejoin:miter;stroke-opacity:1" id="path3104" d="m 141.68925,750.72512 14.78631,14.15179"/><path id="path3106" d="m 156.47555,750.6358 -14.47063,14.24107" style="fill:none;stroke:#000;stroke-width:.99999994px;stroke-linecap:butt;stroke-linejoin:miter;stroke-opacity:1"/></g><g id="g3108" transform="translate(72.714286,-8.9285715)"><path id="path3110" d="m 114.15253,750.76494 27.86484,0" style="fill:none;stroke:#000;stroke-width:1px;stroke-linecap:butt;stroke-linejoin:miter;stroke-opacity:1"/><path style="fill:none;stroke:#000;stroke-width:1px;stroke-linecap:butt;stroke-linejoin:miter;stroke-opacity:1" id="path3112" d="m 114.114,764.76494 28.20976,0"/></g></g><g id="g3114" transform="translate(28,0)"><g id="g3116" transform="translate(72.714286,-8.9285715)"><path id="path3118" d="m 183.68925,750.72512 14.78631,14.15179" style="fill:none;stroke:#000;stroke-width:1px;stroke-linecap:butt;stroke-linejoin:miter;stroke-opacity:1"/><path style="fill:none;stroke:#000;stroke-width:.99999994px;stroke-linecap:butt;stroke-linejoin:miter;stroke-opacity:1" id="path3120" d="m 198.47555,750.6358 -14.47063,14.24107"/></g><g id="g3122" transform="translate(72.714286,-8.9285715)"><path style="fill:none;stroke:#000;stroke-width:1px;stroke-linecap:butt;stroke-linejoin:miter;stroke-opacity:1" id="path3124" d="m 156.15253,750.76494 27.86484,0"/><path id="path3126" d="m 156.114,764.76494 28.20976,0" style="fill:none;stroke:#000;stroke-width:1px;stroke-linecap:butt;stroke-linejoin:miter;stroke-opacity:1"/></g></g><g id="g3128" transform="translate(70,0)"><g id="g3130" transform="translate(72.714286,-8.9285715)"><path style="fill:none;stroke:#000;stroke-width:1px;stroke-linecap:butt;stroke-linejoin:miter;stroke-opacity:1" id="path3132" d="m 141.68925,750.72512 14.78631,14.15179"/><path id="path3134" d="m 156.47555,750.6358 -14.47063,14.24107" style="fill:none;stroke:#000;stroke-width:.99999994px;stroke-linecap:butt;stroke-linejoin:miter;stroke-opacity:1"/></g><g id="g3136" transform="translate(72.714286,-8.9285715)"><path id="path3138" d="m 114.15253,750.76494 27.86484,0" style="fill:none;stroke:#000;stroke-width:1px;stroke-linecap:butt;stroke-linejoin:miter;stroke-opacity:1"/><path style="fill:none;stroke:#000;stroke-width:1px;stroke-linecap:butt;stroke-linejoin:miter;stroke-opacity:1" id="path3140" d="m 114.114,764.76494 28.20976,0"/></g></g><g id="g3142" transform="translate(70,0)"><g id="g3144" transform="translate(72.714286,-8.9285715)"><path id="path3146" d="m 183.68925,750.72512 14.78631,14.15179" style="fill:none;stroke:#000;stroke-width:1px;stroke-linecap:butt;stroke-linejoin:miter;stroke-opacity:1"/><path style="fill:none;stroke:#000;stroke-width:.99999994px;stroke-linecap:butt;stroke-linejoin:miter;stroke-opacity:1" id="path3148" d="m 198.47555,750.6358 -14.47063,14.24107"/></g><g id="g3150" transform="translate(72.714286,-8.9285715)"><path style="fill:none;stroke:#000;stroke-width:1px;stroke-linecap:butt;stroke-linejoin:miter;stroke-opacity:1" id="path3152" d="m 156.15253,750.76494 27.86484,0"/><path id="path3154" d="m 156.114,764.76494 28.20976,0" style="fill:none;stroke:#000;stroke-width:1px;stroke-linecap:butt;stroke-linejoin:miter;stroke-opacity:1"/></g></g><text id="text3156" x="271.393" y="752.952" xml:space="preserve" style="font-size:12px;font-style:normal;font-weight:400;text-align:center;line-height:125%;letter-spacing:0;word-spacing:0;text-anchor:middle;fill:#000;fill-opacity:1;stroke:none;font-family:Sans"><tspan id="tspan3158" x="271.393" y="752.952">Right</tspan></text><text id="text3160" x="313.786" y="752.988" xml:space="preserve" style="font-size:12px;font-style:normal;font-weight:400;text-align:center;line-height:125%;letter-spacing:0;word-spacing:0;text-anchor:middle;fill:#000;fill-opacity:1;stroke:none;font-family:Sans"><tspan id="tspan3162" x="313.786" y="752.988">Left</tspan></text><text id="text3164" x="353.393" y="752.952" xml:space="preserve" style="font-size:12px;font-style:normal;font-weight:400;text-align:center;line-height:125%;letter-spacing:0;word-spacing:0;text-anchor:middle;fill:#000;fill-opacity:1;stroke:none;font-family:Sans"><tspan id="tspan3166" x="353.393" y="752.952">Right</tspan></text><text id="text3168" x="395.786" y="752.988" xml:space="preserve" style="font-size:12px;font-style:normal;font-weight:400;text-align:center;line-height:125%;letter-spacing:0;word-spacing:0;text-anchor:middle;fill:#000;fill-opacity:1;stroke:none;font-family:Sans"><tspan id="tspan3170" x="395.786" y="752.988">Left</tspan></text><g id="g3172" transform="translate(112,0)"><g id="g3174" transform="translate(72.714286,-8.9285715)"><path style="fill:none;stroke:#000;stroke-width:1px;stroke-linecap:butt;stroke-linejoin:miter;stroke-opacity:1" id="path3176" d="m 183.68925,750.72512 14.78631,14.15179"/><path id="path3178" d="m 198.47555,750.6358 -14.47063,14.24107" style="fill:none;stroke:#000;stroke-width:.99999994px;stroke-linecap:butt;stroke-linejoin:miter;stroke-opacity:1"/></g><g id="g3180" transform="translate(72.714286,-8.9285715)"><path id="path3182" d="m 156.15253,750.76494 27.86484,0" style="fill:none;stroke:#000;stroke-width:1px;stroke-linecap:butt;stroke-linejoin:miter;stroke-opacity:1"/><path style="fill:none;stroke:#000;stroke-width:1px;stroke-linecap:butt;stroke-linejoin:miter;stroke-opacity:1" id="path3184" d="m 156.114,764.76494 28.20976,0"/></g></g><g id="g3186" transform="translate(154,0)"><g id="g3188" transform="translate(72.714286,-8.9285715)"><path id="path3190" d="m 141.68925,750.72512 14.78631,14.15179" style="fill:none;stroke:#000;stroke-width:1px;stroke-linecap:butt;stroke-linejoin:miter;stroke-opacity:1"/><path style="fill:none;stroke:#000;stroke-width:.99999994px;stroke-linecap:butt;stroke-linejoin:miter;stroke-opacity:1" id="path3192" d="m 156.47555,750.6358 -14.47063,14.24107"/></g><g id="g3194" transform="translate(72.714286,-8.9285715)"><path style="fill:none;stroke:#000;stroke-width:1px;stroke-linecap:butt;stroke-linejoin:miter;stroke-opacity:1" id="path3196" d="m 114.15253,750.76494 27.86484,0"/><path id="path3198" d="m 114.114,764.76494 28.20976,0" style="fill:none;stroke:#000;stroke-width:1px;stroke-linecap:butt;stroke-linejoin:miter;stroke-opacity:1"/></g></g><g id="g3200" transform="translate(154,0)"><g id="g3202" transform="translate(72.714286,-8.9285715)"><path style="fill:none;stroke:#000;stroke-width:1px;stroke-linecap:butt;stroke-linejoin:miter;stroke-opacity:1" id="path3204" d="m 183.68925,750.72512 14.78631,14.15179"/><path id="path3206" d="m 198.47555,750.6358 -14.47063,14.24107" style="fill:none;stroke:#000;stroke-width:.99999994px;stroke-linecap:butt;stroke-linejoin:miter;stroke-opacity:1"/></g><g id="g3208" transform="translate(72.714286,-8.9285715)"><path id="path3210" d="m 156.15253,750.76494 27.86484,0" style="fill:none;stroke:#000;stroke-width:1px;stroke-linecap:butt;stroke-linejoin:miter;stroke-opacity:1"/><path style="fill:none;stroke:#000;stroke-width:1px;stroke-linecap:butt;stroke-linejoin:miter;stroke-opacity:1" id="path3212" d="m 156.114,764.76494 28.20976,0"/></g></g><g id="g3214" transform="translate(196,0)"><g id="g3216" transform="translate(72.714286,-8.9285715)"><path id="path3218" d="m 141.68925,750.72512 14.78631,14.15179" style="fill:none;stroke:#000;stroke-width:1px;stroke-linecap:butt;stroke-linejoin:miter;stroke-opacity:1"/><path style="fill:none;stroke:#000;stroke-width:.99999994px;stroke-linecap:butt;stroke-linejoin:miter;stroke-opacity:1" id="path3220" d="m 156.47555,750.6358 -14.47063,14.24107"/></g><g id="g3222" transform="translate(72.714286,-8.9285715)"><path style="fill:none;stroke:#000;stroke-width:1px;stroke-linecap:butt;stroke-linejoin:miter;stroke-opacity:1" id="path3224" d="m 114.15253,750.76494 27.86484,0"/><path id="path3226" d="m 114.114,764.76494 28.20976,0" style="fill:none;stroke:#000;stroke-width:1px;stroke-linecap:butt;stroke-linejoin:miter;stroke-opacity:1"/></g></g><g id="g3228" transform="translate(196,0)"><g id="g3230" transform="translate(72.714286,-8.9285715)"><path style="fill:none;stroke:#000;stroke-width:1px;stroke-linecap:butt;stroke-linejoin:miter;stroke-opacity:1" id="path3232" d="m 183.68925,750.72512 14.78631,14.15179"/><path id="path3234" d="m 198.47555,750.6358 -14.47063,14.24107" style="fill:none;stroke:#000;stroke-width:.99999994px;stroke-linecap:butt;stroke-linejoin:miter;stroke-opacity:1"/></g><g id="g3236" transform="translate(72.714286,-8.9285715)"><path id="path3238" d="m 156.15253,750.76494 27.86484,0" style="fill:none;stroke:#000;stroke-width:1px;stroke-linecap:butt;stroke-linejoin:miter;stroke-opacity:1"/><path style="fill:none;stroke:#000;stroke-width:1px;stroke-linecap:butt;stroke-linejoin:miter;stroke-opacity:1" id="path3240" d="m 156.114,764.76494 28.20976,0"/></g></g><text style="font-size:12px;font-style:normal;font-weight:400;text-align:center;line-height:125%;letter-spacing:0;word-spacing:0;text-anchor:middle;fill:#000;fill-opacity:1;stroke:none;font-family:Sans" id="text3278" x="439.393" y="752.952" xml:space="preserve"><tspan id="tspan3280" x="439.393" y="752.952">Right</tspan></text><g id="g3179"><path id="path3141" d="m 136.29206,736.65523 41.96428,0 0,-15" style="fill:none;stroke:#000;stroke-width:.99999994px;stroke-linecap:butt;stroke-linejoin:miter;stroke-opacity:1"/><path style="fill:none;stroke:#000;stroke-width:.99999994px;stroke-linecap:butt;stroke-linejoin:miter;stroke-opacity:1" id="path3177" d="m 220.25634,736.65523 0,-15 -41.96428,0"/></g><g id="g3183" transform="translate(84,0)"><path style="fill:none;stroke:#000;stroke-width:.99999994px;stroke-linecap:butt;stroke-linejoin:miter;stroke-opacity:1" id="path3185" d="m 52.29206,736.65523 41.96428,0 0,-15"/><path id="path3187" d="m 136.25634,736.65523 0,-15 -41.96428,0" style="fill:none;stroke:#000;stroke-width:.99999994px;stroke-linecap:butt;stroke-linejoin:miter;stroke-opacity:1"/></g><g id="g3189" transform="translate(84,0)"><path id="path3191" d="m 136.29206,736.65523 41.96428,0 0,-15" style="fill:none;stroke:#000;stroke-width:.99999994px;stroke-linecap:butt;stroke-linejoin:miter;stroke-opacity:1"/><path style="fill:none;stroke:#000;stroke-width:.99999994px;stroke-linecap:butt;stroke-linejoin:miter;stroke-opacity:1" id="path3193" d="m 220.25634,736.65523 0,-15 -41.96428,0"/></g><g id="g3195" transform="translate(168,0)"><path style="fill:none;stroke:#000;stroke-width:.99999994px;stroke-linecap:butt;stroke-linejoin:miter;stroke-opacity:1" id="path3197" d="m 52.29206,736.65523 41.96428,0 0,-15"/><path id="path3199" d="m 136.25634,736.65523 0,-15 -41.96428,0" style="fill:none;stroke:#000;stroke-width:.99999994px;stroke-linecap:butt;stroke-linejoin:miter;stroke-opacity:1"/></g><g id="g3201" transform="translate(168,0)"><path id="path3203" d="m 136.29206,736.65523 41.96428,0 0,-15" style="fill:none;stroke:#000;stroke-width:.99999994px;stroke-linecap:butt;stroke-linejoin:miter;stroke-opacity:1"/><path style="fill:none;stroke:#000;stroke-width:.99999994px;stroke-linecap:butt;stroke-linejoin:miter;stroke-opacity:1" id="path3205" d="m 220.25634,736.65523 0,-15 -41.96428,0"/></g><g id="g3207" transform="translate(252,0)"><path style="fill:none;stroke:#000;stroke-width:.99999994px;stroke-linecap:butt;stroke-linejoin:miter;stroke-opacity:1" id="path3209" d="m 136.29206,736.65523 41.96428,0 0,-15"/><path id="path3211" d="m 220.25634,736.65523 0,-15 -41.96428,0" style="fill:none;stroke:#000;stroke-width:.99999994px;stroke-linecap:butt;stroke-linejoin:miter;stroke-opacity:1"/></g></g></svg>