<svg xmlns="http://www.w3.org/2000/svg" width="778.918" height="227.412" class="st5" color-interpolation-filters="sRGB" viewBox="0 0 584.188 170.559" xml:space="preserve"><style type="text/css">.st1,.st2{fill:#fff;stroke:#164326;stroke-linecap:round;stroke-linejoin:round;stroke-width:.24}.st2{fill:#bfbfbf}.st3{fill:#164326;font-family:Arial;font-size:.666664em}.st4{fill:none;stroke:none;stroke-linecap:round;stroke-linejoin:round;stroke-width:.72}.st5{fill:none;fill-rule:evenodd;font-size:12;overflow:visible;stroke-linecap:square;stroke-miterlimit:3}</style><g><title>Page-1</title><g id="group6-1" transform="translate(0.24,-141.972)"><title>Sheet.6</title><g id="shape5-2"><title>Box.5</title><rect width="457.795" height="28.346" x="0" y="142.212" class="st1"/></g><g id="shape1-4" transform="translate(6.35827,-4.72441)"><title>Box</title><desc>MASTER ROW</desc><rect width="101.732" height="18.898" x="0" y="151.661" class="st2"/><text x="23.31" y="163.51" class="st3">MASTER ROW</text></g><g id="shape2-7" transform="translate(120.807,-4.72441)"><title>Box.2</title><desc>MASTER ROW</desc><rect width="101.732" height="18.898" x="0" y="151.661" class="st2"/><text x="23.31" y="163.51" class="st3">MASTER ROW</text></g><g id="shape3-10" transform="translate(235.256,-4.72441)"><title>Box.3</title><desc>MASTER ROW</desc><rect width="101.732" height="18.898" x="0" y="151.661" class="st2"/><text x="23.31" y="163.51" class="st3">MASTER ROW</text></g><g id="shape4-13" transform="translate(349.705,-4.72441)"><title>Box.4</title><desc>MASTER ROW</desc><rect width="101.732" height="18.898" x="0" y="151.661" class="st2"/><text x="23.31" y="163.51" class="st3">MASTER ROW</text></g></g><g id="group7-16" transform="translate(0.24,-113.626)"><title>Sheet.7</title><g id="shape8-17"><title>Box.5</title><rect width="457.795" height="28.346" x="0" y="142.212" class="st1"/></g><g id="shape9-19" transform="translate(6.35827,-4.72441)"><title>Box</title><desc>Logical Page 0 Revision 0</desc><rect width="101.732" height="18.898" x="0" y="151.661" class="st1"/><text x="4.61" y="163.51" class="st3">Logical Page 0 Revision 0</text></g><g id="shape10-22" transform="translate(120.807,-4.72441)"><title>Box.2</title><desc>Logical Page 1 Revision 0</desc><rect width="101.732" height="18.898" x="0" y="151.661" class="st1"/><text x="4.61" y="163.51" class="st3">Logical Page 1 Revision 0</text></g><g id="shape11-25" transform="translate(235.256,-4.72441)"><title>Box.3</title><rect width="101.732" height="18.898" x="0" y="151.661" class="st1"/></g><g id="shape12-27" transform="translate(349.705,-4.72441)"><title>Box.4</title><rect width="101.732" height="18.898" x="0" y="151.661" class="st1"/></g></g><g id="group13-29" transform="translate(0.24,-85.2794)"><title>Sheet.13</title><g id="shape14-30"><title>Box.5</title><rect width="457.795" height="28.346" x="0" y="142.212" class="st1"/></g><g id="shape15-32" transform="translate(6.35827,-4.72441)"><title>Box</title><desc>Logical Page 2 Revision 0</desc><rect width="101.732" height="18.898" x="0" y="151.661" class="st1"/><text x="4.61" y="163.51" class="st3">Logical Page 2 Revision 0</text></g><g id="shape16-35" transform="translate(120.807,-4.72441)"><title>Box.2</title><desc>Logical Page 3 Revision 0</desc><rect width="101.732" height="18.898" x="0" y="151.661" class="st1"/><text x="4.61" y="163.51" class="st3">Logical Page 3 Revision 0</text></g><g id="shape17-38" transform="translate(235.256,-4.72441)"><title>Box.3</title><rect width="101.732" height="18.898" x="0" y="151.661" class="st1"/></g><g id="shape18-40" transform="translate(349.705,-4.72441)"><title>Box.4</title><rect width="101.732" height="18.898" x="0" y="151.661" class="st1"/></g></g><g id="group19-42" transform="translate(0.24,-56.9329)"><title>Sheet.19</title><g id="shape20-43"><title>Box.5</title><rect width="457.795" height="28.346" x="0" y="142.212" class="st1"/></g><g id="shape21-45" transform="translate(6.35827,-4.72441)"><title>Box</title><desc>Logical Page 4 Revision 0</desc><rect width="101.732" height="18.898" x="0" y="151.661" class="st1"/><text x="4.61" y="163.51" class="st3">Logical Page 4 Revision 0</text></g><g id="shape22-48" transform="translate(120.807,-4.72441)"><title>Box.2</title><desc>Logical Page 5 Revision 0</desc><rect width="101.732" height="18.898" x="0" y="151.661" class="st1"/><text x="4.61" y="163.51" class="st3">Logical Page 5 Revision 0</text></g><g id="shape23-51" transform="translate(235.256,-4.72441)"><title>Box.3</title><rect width="101.732" height="18.898" x="0" y="151.661" class="st1"/></g><g id="shape24-53" transform="translate(349.705,-4.72441)"><title>Box.4</title><rect width="101.732" height="18.898" x="0" y="151.661" class="st1"/></g></g><g id="group25-55" transform="translate(0.24,-28.5865)"><title>Sheet.25</title><g id="shape26-56"><title>Box.5</title><rect width="457.795" height="28.346" x="0" y="142.212" class="st1"/></g><g id="shape27-58" transform="translate(6.35827,-4.72441)"><title>Box</title><desc>Logical Page 6 Revision 0</desc><rect width="101.732" height="18.898" x="0" y="151.661" class="st1"/><text x="4.61" y="163.51" class="st3">Logical Page 6 Revision 0</text></g><g id="shape28-61" transform="translate(120.807,-4.72441)"><title>Box.2</title><desc>Logical Page 7 Revision 0</desc><rect width="101.732" height="18.898" x="0" y="151.661" class="st1"/><text x="4.61" y="163.51" class="st3">Logical Page 7 Revision 0</text></g><g id="shape29-64" transform="translate(235.256,-4.72441)"><title>Box.3</title><rect width="101.732" height="18.898" x="0" y="151.661" class="st1"/></g><g id="shape30-66" transform="translate(349.705,-4.72441)"><title>Box.4</title><rect width="101.732" height="18.898" x="0" y="151.661" class="st1"/></g></g><g id="group31-68" transform="translate(0.24,-0.24)"><title>Sheet.31</title><g id="shape32-69"><title>Box.5</title><rect width="457.795" height="28.346" x="0" y="142.212" class="st1"/></g><g id="shape33-71" transform="translate(6.35827,-4.72441)"><title>Box</title><desc>SPARE ROW</desc><rect width="101.732" height="18.898" x="0" y="151.661" class="st2"/><text x="26.42" y="163.51" class="st3">SPARE ROW</text></g><g id="shape34-74" transform="translate(120.807,-4.72441)"><title>Box.2</title><desc>SPARE ROW</desc><rect width="101.732" height="18.898" x="0" y="151.661" class="st2"/><text x="26.42" y="163.51" class="st3">SPARE ROW</text></g><g id="shape35-77" transform="translate(235.256,-4.72441)"><title>Box.3</title><desc>SPARE ROW</desc><rect width="101.732" height="18.898" x="0" y="151.661" class="st2"/><text x="26.42" y="163.51" class="st3">SPARE ROW</text></g><g id="shape36-80" transform="translate(349.705,-4.72441)"><title>Box.4</title><desc>SPARE ROW</desc><rect width="101.732" height="18.898" x="0" y="151.661" class="st2"/><text x="26.42" y="163.51" class="st3">SPARE ROW</text></g></g><g id="shape37-83" transform="translate(458.209,-147.232)"><title>Sheet.37</title><desc>End of Flash</desc><rect width="125.26" height="16" x="0" y="154.559" class="st4"/><text x="4" y="164.96" class="st3">End of Flash</text></g><g id="shape38-86" transform="translate(457.311,-6.41323)"><title>Sheet.38</title><desc>End of FLASH – EEPROM Rows</desc><rect width="126.157" height="16" x="0" y="154.559" class="st4"/><text x="4" y="164.96" class="st3">End of FLASH – EEPROM Rows</text></g></g></svg>