<svg xmlns="http://www.w3.org/2000/svg" width="624.262" height="84.43" class="st7" color-interpolation-filters="sRGB" viewBox="0 0 468.197 63.322" xml:space="preserve"><style type="text/css">.st1,.st2{stroke:#000;stroke-linecap:round;stroke-linejoin:round;stroke-width:.24}.st2{fill:none;stroke:none;stroke-width:.72}.st3{fill:#000;font-family:Arial;font-size:.666664em}.st4{stroke:#000;marker-end:url(#mrkr13-134);marker-start:url(#mrkr13-132);stroke-linecap:round;stroke-linejoin:round;stroke-width:.24}.st6{fill:#fff;stroke:none;stroke-linecap:butt;stroke-width:7.2}.st7{fill:none;fill-rule:evenodd;font-size:12;overflow:visible;stroke-linecap:square;stroke-miterlimit:3}</style><defs id="Markers"><g id="lend13"><path style="stroke:none" d="M 3 1 L -0 0 L 3 -1 L 3 1"/></g></defs><g><title>Page-1</title><g id="group3-1" transform="translate(99.4526,-0.72)"><title>Sheet.3</title><g id="shape1-2" transform="translate(56.6371,6.6572) rotate(63.4349)"><title>Sheet.1</title><path d="M0 63.32 L31.69 63.32" class="st1"/></g><g id="shape2-5" transform="translate(-56.6371,35.0037) rotate(-63.4349)"><title>Sheet.2</title><path d="M0 63.32 L31.69 63.32" class="st1"/></g></g><g id="group4-8" transform="translate(127.799,-0.72)"><title>Sheet.4</title><g id="shape5-9" transform="translate(56.6371,6.6572) rotate(63.4349)"><title>Sheet.5</title><path d="M0 63.32 L31.69 63.32" class="st1"/></g><g id="shape6-12" transform="translate(-56.6371,35.0037) rotate(-63.4349)"><title>Sheet.6</title><path d="M0 63.32 L31.69 63.32" class="st1"/></g></g><g id="group7-15" transform="translate(156.146,-0.72)"><title>Sheet.7</title><g id="shape8-16" transform="translate(56.6371,6.6572) rotate(63.4349)"><title>Sheet.8</title><path d="M0 63.32 L31.69 63.32" class="st1"/></g><g id="shape9-19" transform="translate(-56.6371,35.0037) rotate(-63.4349)"><title>Sheet.9</title><path d="M0 63.32 L31.69 63.32" class="st1"/></g></g><g id="group10-22" transform="translate(184.492,-0.72)"><title>Sheet.10</title><g id="shape11-23" transform="translate(56.6371,6.6572) rotate(63.4349)"><title>Sheet.11</title><path d="M0 63.32 L31.69 63.32" class="st1"/></g><g id="shape12-26" transform="translate(-56.6371,35.0037) rotate(-63.4349)"><title>Sheet.12</title><path d="M0 63.32 L31.69 63.32" class="st1"/></g></g><g id="group13-29" transform="translate(212.838,-0.72)"><title>Sheet.13</title><g id="shape14-30" transform="translate(56.6371,6.6572) rotate(63.4349)"><title>Sheet.14</title><path d="M0 63.32 L31.69 63.32" class="st1"/></g><g id="shape15-33" transform="translate(-56.6371,35.0037) rotate(-63.4349)"><title>Sheet.15</title><path d="M0 63.32 L31.69 63.32" class="st1"/></g></g><g id="group16-36" transform="translate(241.185,-0.72)"><title>Sheet.16</title><g id="shape17-37" transform="translate(56.6371,6.6572) rotate(63.4349)"><title>Sheet.17</title><path d="M0 63.32 L31.69 63.32" class="st1"/></g><g id="shape18-40" transform="translate(-56.6371,35.0037) rotate(-63.4349)"><title>Sheet.18</title><path d="M0 63.32 L31.69 63.32" class="st1"/></g></g><g id="group19-43" transform="translate(269.531,-0.72)"><title>Sheet.19</title><g id="shape20-44" transform="translate(56.6371,6.6572) rotate(63.4349)"><title>Sheet.20</title><path d="M0 63.32 L31.69 63.32" class="st1"/></g><g id="shape21-47" transform="translate(-56.6371,35.0037) rotate(-63.4349)"><title>Sheet.21</title><path d="M0 63.32 L31.69 63.32" class="st1"/></g></g><g id="shape22-50" transform="translate(107.957,-0.72)"><title>Sheet.22</title><desc>1</desc><rect width="28.346" height="28.346" x="0" y="34.976" class="st2"/><text x="11.95" y="51.55" class="st3">1</text></g><g id="shape23-53" transform="translate(134.886,-0.72)"><title>Sheet.23</title><desc>2</desc><rect width="28.346" height="28.346" x="0" y="34.976" class="st2"/><text x="11.95" y="51.55" class="st3">2</text></g><g id="shape24-56" transform="translate(163.232,-0.72)"><title>Sheet.24</title><desc>3</desc><rect width="28.346" height="28.346" x="0" y="34.976" class="st2"/><text x="11.95" y="51.55" class="st3">3</text></g><g id="shape25-59" transform="translate(191.579,-0.72)"><title>Sheet.25</title><desc>4</desc><rect width="28.346" height="28.346" x="0" y="34.976" class="st2"/><text x="11.95" y="51.55" class="st3">4</text></g><g id="shape26-62" transform="translate(219.925,-0.72)"><title>Sheet.26</title><desc>[5]</desc><rect width="28.346" height="28.346" x="0" y="34.976" class="st2"/><text x="9.73" y="51.55" class="st3">[5]</text></g><g id="shape27-65" transform="translate(248.271,-0.72)"><title>Sheet.27</title><desc>[6]</desc><rect width="28.346" height="28.346" x="0" y="34.976" class="st2"/><text x="9.73" y="51.55" class="st3">[6]</text></g><g id="shape28-68" transform="translate(275.909,-0.72)"><title>Sheet.28</title><desc>[7]</desc><rect width="28.346" height="28.346" x="0" y="34.976" class="st2"/><text x="9.73" y="51.55" class="st3">[7]</text></g><g id="shape29-71" transform="translate(302.838,-0.72)"><title>Sheet.29</title><desc>[8]</desc><rect width="28.346" height="28.346" x="0" y="34.976" class="st2"/><text x="9.73" y="51.55" class="st3">[8]</text></g><g id="shape30-74" transform="translate(141.916,62.5743) rotate(116.565)"><title>Sheet.30</title><path d="M0 63.32 L31.69 63.32" class="st1"/></g><g id="group31-77" transform="translate(297.878,-0.72)"><title>Sheet.31</title><g id="shape32-78" transform="translate(56.6371,6.6572) rotate(63.4349)"><title>Sheet.32</title><path d="M0 63.32 L31.69 63.32" class="st1"/></g><g id="shape33-81" transform="translate(-56.6371,35.0037) rotate(-63.4349)"><title>Sheet.33</title><path d="M0 63.32 L31.69 63.32" class="st1"/></g></g><g id="shape34-84" transform="translate(269.587,34.2837) rotate(-63.4349)"><title>Sheet.34</title><path d="M0 63.32 L31.69 63.32" class="st1"/></g><g id="shape35-87" transform="translate(0.24,-0.72)"><title>Sheet.35</title><path d="M325.98 63.32 L70.87 63.32 L56.69 63.32 L42.52 34.98 L0 34.98" class="st1"/></g><g id="shape37-90" transform="translate(467.957,97.578) rotate(180)"><title>Sheet.37</title><path d="M0 63.32 L56.69 63.32" class="st1"/></g><g id="shape38-93" transform="translate(79.6101,-0.72)"><title>Sheet.38</title><desc>0</desc><rect width="28.346" height="28.346" x="0" y="34.976" class="st2"/><text x="11.95" y="51.55" class="st3">0</text></g><g id="shape39-96" transform="translate(49.8463,-0.72)"><title>Sheet.39</title><desc>St</desc><rect width="28.346" height="28.346" x="0" y="34.976" class="st2"/><text x="10.39" y="51.55" class="st3">St</text></g><g id="shape40-99" transform="translate(8.74394,-0.72)"><title>Sheet.40</title><desc>(IDLE)</desc><rect width="36.85" height="28.346" x="0" y="34.976" class="st2"/><text x="6.87" y="51.55" class="st3">(IDLE)</text></g><g id="shape41-102" transform="translate(361.657,-0.72)"><title>Sheet.41</title><desc>Sp1</desc><rect width="28.346" height="28.346" x="0" y="34.976" class="st2"/><text x="7.06" y="51.55" class="st3">Sp1</text></g><g id="shape42-105" transform="translate(388.586,-0.72)"><title>Sheet.42</title><desc>[Sp2]</desc><rect width="28.346" height="28.346" x="0" y="34.976" class="st2"/><text x="4.83" y="51.55" class="st3">[Sp2]</text></g><g id="shape43-108" transform="translate(422.602,-0.72)"><title>Sheet.43</title><desc>(St/IDLE)</desc><rect width="42.52" height="28.346" x="0" y="34.976" class="st2"/><text x="4.81" y="51.55" class="st3">(St/IDLE)</text></g><g id="shape44-111" transform="translate(-20.5625,22.9172) rotate(-90)"><title>Sheet.44</title><path d="M0 63.32 L22.68 63.32" class="st1"/></g><g id="shape45-114" transform="translate(347.941,22.9172) rotate(-90)"><title>Sheet.45</title><path d="M0 63.32 L22.68 63.32" class="st1"/></g><g id="shape240-117" transform="translate(326.224,-0.72)"><title>Sheet.240</title><path d="M42.52 34.98 L28.35 63.32 L14.17 63.32 L0 34.98" class="st1"/></g><g id="shape36-120" transform="translate(85.2794,-0.72)"><title>Sheet.36</title><path d="M0 34.98 L325.98 34.98 L340.16 63.32 L379.84 63.32" class="st1"/></g><g id="shape241-123" transform="translate(333.311,-0.72)"><title>Sheet.241</title><desc>[P]</desc><rect width="28.346" height="28.346" x="0" y="34.976" class="st2"/><text x="9.28" y="51.55" class="st3">[P]</text></g><g id="shape242-126" transform="translate(42.7597,-51.7436)"><title>Sheet.242</title><desc>Frame</desc><path d="M7.92 63.32 L8.28 63.32 L360.22 63.32" class="st4"/><rect width="23.113" height="9.6" x="172.695" y="58.522" class="st6"/><text x="172.7" y="65.72" class="st3">Frame</text></g></g></svg>