<svg xmlns="http://www.w3.org/2000/svg" width="701.132" height="265.847" class="st13" color-interpolation-filters="sRGB" viewBox="0 0 525.849 199.385" xml:space="preserve"><style type="text/css">.st1{fill:#fff;stroke:#000;stroke-linecap:round;stroke-linejoin:round;stroke-width:.24}.st2{fill:#000;font-family:Arial;font-size:1.00001em;font-weight:700}.st3{font-size:1em}.st4{fill:#fff;stroke-dasharray:1.68,1.2}.st4,.st5,.st6{stroke:#000;stroke-linecap:round;stroke-linejoin:round;stroke-width:.24}.st6{fill:none;stroke:none;stroke-width:.72}.st7{fill:#000;font-family:Arial;font-size:.833336em}.st8{baseline-shift:-32.4947%;font-size:.649894em}.st10,.st9{stroke-linecap:round;stroke-linejoin:round}.st9{fill:none;stroke:none;stroke-width:.24}.st10{stroke:#000;stroke-width:1.2}.st11{baseline-shift:-32.4941%;font-size:.649882em}.st12{fill:#000;stroke:#000;stroke-linecap:round;stroke-linejoin:round;stroke-width:.24}.st13{fill:none;fill-rule:evenodd;font-size:12;overflow:visible;stroke-linecap:square;stroke-miterlimit:3}</style><g><title>Page-1</title><g id="group1-1" transform="translate(0.24,-0.72)"><title>Sheet.1</title><g id="shape2-2" transform="translate(155.906,-113.386)"><title>Box.448</title><desc>I2C DEVICE #1</desc><rect width="85.039" height="56.693" x="0" y="142.692" class="st1"/><text x="9.18" y="167.44" class="st2">I2C DEVICE <tspan x="35.85" class="st3" dy="1.2em">#</tspan>1</text></g><g id="shape3-6" transform="translate(180.709,-70.8661)"><title>Box.450</title><path d="M0 199.39 L7.09 199.39 L7.09 171.04 L0 171.04 L0 199.39 Z" class="st4"/></g><g id="shape4-8" transform="translate(209.055,-70.8661)"><title>Box.451</title><path d="M0 199.39 L7.09 199.39 L7.09 171.04 L0 171.04 L0 199.39 Z" class="st4"/></g><g id="shape5-10" transform="translate(184.252,-99.2126)"><title>Bottom to top 1</title><path d="M0 185.21 L0 192.3 L0 199.39" class="st5"/></g><g id="shape6-13" transform="translate(212.598,-99.2126)"><title>Bottom to top 1.453</title><path d="M0 185.21 L0 192.3 L0 199.39" class="st5"/></g><g id="shape7-16" transform="translate(212.598,-56.6929)"><title>Bottom to top 1.454</title><path d="M0 185.21 L0 192.3 L0 199.39" class="st5"/></g><g id="shape8-19" transform="translate(184.252,-28.3465)"><title>Bottom to top 1.455</title><path d="M0 156.87 L0 178.13 L0 199.39" class="st5"/></g><g id="shape9-22" transform="translate(109.843,-127.559)"><title>Box.449</title><rect width="7.087" height="28.346" x="0" y="171.039" class="st1"/></g><g id="shape10-24" transform="translate(113.386,-155.906)"><title>Bottom to top 1.456</title><path d="M0 171.04 L0 185.21 L0 199.39" class="st5"/></g><g id="shape11-27" transform="translate(113.386,-56.6929)"><title>Bottom to top 1.457</title><path d="M0 128.52 L0 163.95 L0 199.39" class="st5"/></g><g id="shape12-30" transform="translate(67.3228,-127.559)"><title>Box.447</title><rect width="7.087" height="28.346" x="0" y="171.039" class="st1"/></g><g id="shape13-32" transform="translate(70.8661,-155.906)"><title>Bottom to top 1.458</title><path d="M0 171.04 L0 185.21 L0 199.39" class="st5"/></g><g id="shape14-35" transform="translate(70.8661,-28.3465)"><title>Bottom to top 1.459</title><path d="M0 100.17 L0 149.78 L0 199.39" class="st5"/></g><g id="shape15-38" transform="translate(77.9528,-141.732)"><title>Sheet.15</title><desc>RP</desc><rect width="21.26" height="14.173" x="0" y="185.212" class="st6"/><text x="4" y="195.3" class="st7">R<tspan class="st8" dy="-.287em">P</tspan></text></g><g id="shape16-42" transform="translate(120.472,-141.732)"><title>Sheet.16</title><desc>RP</desc><rect width="21.26" height="14.173" x="0" y="185.212" class="st6"/><text x="4" y="195.3" class="st7">R<tspan class="st8" dy="-.287em">P</tspan></text></g><g id="shape17-46" transform="translate(187.795,-77.9528)"><title>Sheet.17</title><desc>RS</desc><rect width="21.26" height="14.173" x="0" y="185.212" class="st6"/><text x="4" y="195.3" class="st7">R<tspan class="st8" dy="-.287em">S</tspan></text></g><g id="shape18-50" transform="translate(219.685,-77.9528)"><title>Sheet.18</title><desc>RS</desc><rect width="21.26" height="14.173" x="0" y="185.212" class="st6"/><text x="4" y="195.3" class="st7">R<tspan class="st8" dy="-.287em">S</tspan></text></g><g id="shape19-54" transform="translate(-3.59712E-014,-42.5197)"><title>Box.211</title><desc>SDA</desc><rect width="42.52" height="28.346" x="0" y="171.039" class="st9"/><text x="13.18" y="188.81" class="st2">SDA</text></g><g id="shape20-57" transform="translate(-3.59712E-014,-14.1732)"><title>Box.465</title><desc>SCL</desc><rect width="42.52" height="28.346" x="0" y="171.039" class="st9"/><text x="14.52" y="188.81" class="st2">SCL</text></g><g id="shape21-60" transform="translate(42.5197,-56.6929)"><title>Side to side 1</title><path d="M0 199.39 L240.94 199.39 L481.89 199.39" class="st10"/></g><g id="shape22-63" transform="translate(42.5197,-28.3465)"><title>Side to side 1.467</title><path d="M0 199.39 L240.94 199.39 L481.89 199.39" class="st10"/></g><g id="shape23-66" transform="translate(198.425,-170.079)"><title>Bottom to top 1.468</title><path d="M0 185.21 L0 192.3 L0 199.39" class="st5"/></g><g id="shape24-69" transform="translate(42.5197,-184.252)"><title>Side to side 1.469</title><path d="M0 199.39 L240.94 199.39 L481.89 199.39" class="st10"/></g><g id="shape25-72" transform="translate(-3.59712E-014,-170.079)"><title>Box.470</title><desc>VCC</desc><rect width="42.52" height="28.346" x="0" y="171.039" class="st9"/><text x="19.25" y="188.81" class="st2">V<tspan class="st11" dy="-.287em">CC</tspan></text></g><g id="shape26-76" transform="translate(269.291,-113.386)"><title>Box.471</title><desc>I2C DEVICE #2</desc><rect width="85.039" height="56.693" x="0" y="142.692" class="st1"/><text x="9.18" y="167.44" class="st2">I2C DEVICE <tspan x="35.85" class="st3" dy="1.2em">#</tspan>2</text></g><g id="shape27-80" transform="translate(294.094,-70.8661)"><title>Box.472</title><path d="M0 199.39 L7.09 199.39 L7.09 171.04 L0 171.04 L0 199.39 Z" class="st4"/></g><g id="shape28-82" transform="translate(322.441,-70.8661)"><title>Box.473</title><path d="M0 199.39 L7.09 199.39 L7.09 171.04 L0 171.04 L0 199.39 Z" class="st4"/></g><g id="shape29-84" transform="translate(297.638,-99.2126)"><title>Bottom to top 1.474</title><path d="M0 185.21 L0 192.3 L0 199.39" class="st5"/></g><g id="shape30-87" transform="translate(325.984,-99.2126)"><title>Bottom to top 1.475</title><path d="M0 185.21 L0 192.3 L0 199.39" class="st5"/></g><g id="shape31-90" transform="translate(325.984,-56.6929)"><title>Bottom to top 1.476</title><path d="M0 185.21 L0 192.3 L0 199.39" class="st5"/></g><g id="shape32-93" transform="translate(297.638,-28.3465)"><title>Bottom to top 1.477</title><path d="M0 156.87 L0 178.13 L0 199.39" class="st5"/></g><g id="shape33-96" transform="translate(301.181,-77.9528)"><title>Sheet.33</title><desc>RS</desc><rect width="21.26" height="14.173" x="0" y="185.212" class="st6"/><text x="4" y="195.3" class="st7">R<tspan class="st8" dy="-.287em">S</tspan></text></g><g id="shape34-100" transform="translate(333.071,-77.9528)"><title>Sheet.34</title><desc>RS</desc><rect width="21.26" height="14.173" x="0" y="185.212" class="st6"/><text x="4" y="195.3" class="st7">R<tspan class="st8" dy="-.287em">S</tspan></text></g><g id="shape35-104" transform="translate(311.811,-170.079)"><title>Bottom to top 1.480</title><path d="M0 185.21 L0 192.3 L0 199.39" class="st5"/></g><g id="shape36-107" transform="translate(425.197,-113.386)"><title>Box.481</title><desc>I2C DEVICE #N</desc><rect width="85.039" height="56.693" x="0" y="142.692" class="st1"/><text x="9.18" y="167.44" class="st2">I2C DEVICE <tspan x="34.85" class="st3" dy="1.2em">#</tspan>N</text></g><g id="shape37-111" transform="translate(450,-70.8661)"><title>Box.482</title><path d="M0 199.39 L7.09 199.39 L7.09 171.04 L0 171.04 L0 199.39 Z" class="st4"/></g><g id="shape38-113" transform="translate(478.346,-70.8661)"><title>Box.483</title><path d="M0 199.39 L7.09 199.39 L7.09 171.04 L0 171.04 L0 199.39 Z" class="st4"/></g><g id="shape39-115" transform="translate(453.543,-99.2126)"><title>Bottom to top 1.484</title><path d="M0 185.21 L0 192.3 L0 199.39" class="st5"/></g><g id="shape40-118" transform="translate(481.89,-99.2126)"><title>Bottom to top 1.485</title><path d="M0 185.21 L0 192.3 L0 199.39" class="st5"/></g><g id="shape41-121" transform="translate(481.89,-56.6929)"><title>Bottom to top 1.486</title><path d="M0 185.21 L0 192.3 L0 199.39" class="st5"/></g><g id="shape42-124" transform="translate(453.543,-28.3465)"><title>Bottom to top 1.487</title><path d="M0 156.87 L0 178.13 L0 199.39" class="st5"/></g><g id="shape43-127" transform="translate(457.087,-77.9528)"><title>Sheet.43</title><desc>RS</desc><rect width="21.26" height="14.173" x="0" y="185.212" class="st6"/><text x="4" y="195.3" class="st7">R<tspan class="st8" dy="-.287em">S</tspan></text></g><g id="shape44-131" transform="translate(488.976,-77.9528)"><title>Sheet.44</title><desc>RS</desc><rect width="21.26" height="14.173" x="0" y="185.212" class="st6"/><text x="4" y="195.3" class="st7">R<tspan class="st8" dy="-.287em">S</tspan></text></g><g id="shape45-135" transform="translate(467.717,-170.079)"><title>Bottom to top 1.490</title><path d="M0 185.21 L0 192.3 L0 199.39" class="st5"/></g><g id="shape46-138" transform="translate(372.047,-138.189)"><title>Sheet.46</title><ellipse cx="3.543" cy="195.842" class="st12" rx="3.543" ry="3.543"/></g><g id="shape47-140" transform="translate(386.22,-138.189)"><title>Sheet.47</title><ellipse cx="3.543" cy="195.842" class="st12" rx="3.543" ry="3.543"/></g><g id="shape48-142" transform="translate(400.394,-138.189)"><title>Sheet.48</title><ellipse cx="3.543" cy="195.842" class="st12" rx="3.543" ry="3.543"/></g><g id="shape49-144" transform="translate(411.024,0)"><title>Sheet.49</title><desc>Note: RS is optional</desc><rect width="113.386" height="28.346" x="0" y="171.039" class="st6"/><text x="23.34" y="188.21" class="st7">Note: R<tspan class="st8" dy="-.287em">S</tspan><tspan class="st3" dy=".186em"> </tspan><tspan class="st3">is optional</tspan></text></g></g></g></svg>