<svg xmlns="http://www.w3.org/2000/svg" xmlns:svg="http://www.w3.org/2000/svg" id="svg2985" width="380.128" height="320.96" version="1.1" xml:space="preserve"><metadata id="metadata2991"/><defs id="defs2989"><clipPath id="clipPath3001" clipPathUnits="userSpaceOnUse"><path id="path3003" d="m 0,762.9 612,0 0,0.53998 -612,0 L 0,762.9 z"/></clipPath><clipPath id="clipPath3011" clipPathUnits="userSpaceOnUse"><path id="path3013" d="m 611.76,757.86 0.23999,0 0,5.34 -0.23999,0 0,-5.34 z"/></clipPath><clipPath id="clipPath3021" clipPathUnits="userSpaceOnUse"><path id="path3023" d="m 0,757.86 612,0 0,0.54004 -612,0 0,-0.54004 z"/></clipPath><clipPath id="clipPath3031" clipPathUnits="userSpaceOnUse"><path id="path3033" d="m 0,758.1 0.29999,0 0,5.34 -0.29999,0 0,-5.34 z"/></clipPath><clipPath id="clipPath3043" clipPathUnits="userSpaceOnUse"><path id="path3045" d="m 0,791.7 612,0 0,0.29999 -612,0 L 0,791.7 z"/></clipPath><clipPath id="clipPath3053" clipPathUnits="userSpaceOnUse"><path id="path3055" d="m 611.76,762.9 0.23999,0 0,29.1 -0.23999,0 0,-29.1 z"/></clipPath><clipPath id="clipPath3063" clipPathUnits="userSpaceOnUse"><path id="path3065" d="m 0,762.9 612,0 0,0.53998 -612,0 L 0,762.9 z"/></clipPath><clipPath id="clipPath3073" clipPathUnits="userSpaceOnUse"><path id="path3075" d="m 0,763.14 0.29999,0 0,28.86 L 0,792 0,763.14 z"/></clipPath><clipPath id="clipPath3105" clipPathUnits="userSpaceOnUse"><path id="path3107" d="m 35.28,48.42 50.22,0 0,-12.48 -50.22,0 0,12.48 z" clip-rule="evenodd"/></clipPath><clipPath id="clipPath3111" clipPathUnits="userSpaceOnUse"><path id="path3113" d="m 0,792.03 612,0 0,-792 -612,0 0,792 z"/></clipPath><clipPath id="clipPath3321" clipPathUnits="userSpaceOnUse"><path id="path3323" d="m 161.64,724.98 324.72,0 0,-271.02 -324.72,0 0,271.02 z" clip-rule="evenodd"/></clipPath><clipPath id="clipPath3327" clipPathUnits="userSpaceOnUse"><path id="path3329" d="m 109.8,726.84 428.46,0 0,-274.74 -428.46,0 0,274.74 z" clip-rule="evenodd"/></clipPath><clipPath id="clipPath3333" clipPathUnits="userSpaceOnUse"><path id="path3335" d="m 72,735.84 504,0 0,-503.76 -504,0 0,503.76 z" clip-rule="evenodd"/></clipPath><clipPath id="clipPath3339" clipPathUnits="userSpaceOnUse"><path id="path3341" d="m 0,792.03 612,0 0,-792 -612,0 0,792 z"/></clipPath></defs><g id="g2993" transform="matrix(1.25,0,0,-1.25,-183.91829,749.20451)"><g id="g3343" transform="translate(179.56813,517.13011)" style="stroke-width:.4;stroke-miterlimit:4;stroke-dasharray:none"><path id="path3345" d="M 0,0 C 11.82,35.04 44.58,58.56 81.48,58.5" style="fill:none;stroke:#000;stroke-width:.4;stroke-linecap:round;stroke-linejoin:round;stroke-miterlimit:4;stroke-opacity:1;stroke-dasharray:none"/></g><g id="g3347" transform="translate(183.04813,517.07011)" style="stroke-width:.4;stroke-miterlimit:4;stroke-dasharray:none"><path id="path3349" d="M 0,0 -5.94,-8.88 -6.48,1.8 0,0" style="fill:#000;fill-opacity:1;fill-rule:evenodd;stroke:none;stroke-width:.4;stroke-miterlimit:4;stroke-dasharray:none"/></g><text id="text3351" x="197.483" y="-537.518" transform="scale(0.99830575,-1.0016971)" style="font-size:9.6000001200000007px;-inkscape-font-specification:Arial;font-family:Arial;font-weight:400;font-style:normal;font-stretch:normal;font-variant:normal;text-anchor:start;text-align:start;writing-mode:lr;line-height:125%;stroke-width:.40000001;stroke-miterlimit:4;stroke-dasharray:none"><tspan id="tspan3353" x="197.483 202.892 204.697 209.504 211.91 216.719 219.124 226.335 230.541 235.351 240.16" y="-537.518" style="font-size:9.6000001200000007px;font-variant:normal;font-weight:400;font-stretch:normal;writing-mode:lr;fill:#000;fill-opacity:1;fill-rule:nonzero;stroke:none;font-family:Arial;-inkscape-font-specification:Arial;font-style:normal;text-anchor:start;text-align:start;line-height:125%;stroke-width:.40000001;stroke-miterlimit:4;stroke-dasharray:none">P + Timeout</tspan></text><g id="g3355" transform="translate(202.96813,594.41011)" style="stroke-width:.4;stroke-miterlimit:4;stroke-dasharray:none"><path id="path3357" d="M 0,0 C 19.08,4.56 39.12,2.64 56.94,-5.46" style="fill:none;stroke:#000;stroke-width:.4;stroke-linecap:round;stroke-linejoin:round;stroke-miterlimit:4;stroke-opacity:1;stroke-dasharray:none"/></g><g id="g3359" transform="translate(260.62813,592.31011)" style="stroke-width:.4;stroke-miterlimit:4;stroke-dasharray:none"><path id="path3361" d="M 0,0 4.56,-6 -3,-6 0,0" style="fill:#000;fill-opacity:1;fill-rule:evenodd;stroke:none;stroke-width:.4;stroke-miterlimit:4;stroke-dasharray:none"/></g><text id="text3363" x="223.327" y="-583.819" transform="scale(0.99830575,-1.0016971)" style="font-size:9.6000001200000007px;-inkscape-font-specification:Arial;font-family:Arial;font-weight:400;font-style:normal;font-stretch:normal;font-variant:normal;text-anchor:start;text-align:start;writing-mode:lr;line-height:125%;stroke-width:.40000001;stroke-miterlimit:4;stroke-dasharray:none"><tspan id="tspan3365" x="223.327 229.335 234.745 240.155 245.564" y="-583.819" style="font-size:9.6000001200000007px;font-variant:normal;font-weight:400;font-stretch:normal;writing-mode:lr;fill:#000;fill-opacity:1;fill-rule:nonzero;stroke:none;font-family:Arial;-inkscape-font-specification:Arial;font-style:normal;text-anchor:start;text-align:start;line-height:125%;stroke-width:.40000001;stroke-miterlimit:4;stroke-dasharray:none">RESET</tspan></text><g id="g3367" transform="translate(251.80813,384.53011)" style="stroke-width:.4;stroke-miterlimit:4;stroke-dasharray:none"><path id="path3369" d="M 0,0 C -36.66,3.84 -66.72,30.78 -74.7,66.9" style="fill:none;stroke:#000;stroke-width:.4;stroke-linecap:round;stroke-linejoin:round;stroke-miterlimit:4;stroke-opacity:1;stroke-dasharray:none"/></g><g id="g3371" transform="translate(251.14813,387.89011)" style="stroke-width:.4;stroke-miterlimit:4;stroke-dasharray:none"><path id="path3373" d="M 0,0 9.9,-3.84 -0.36,-6.72 0,0" style="fill:#000;fill-opacity:1;fill-rule:evenodd;stroke:none;stroke-width:.4;stroke-miterlimit:4;stroke-dasharray:none"/></g><text id="text3375" x="197.483" y="-420.297" transform="scale(0.99830575,-1.0016971)" style="font-size:9.6000001200000007px;-inkscape-font-specification:Arial;font-family:Arial;font-weight:400;font-style:normal;font-stretch:normal;font-variant:normal;text-anchor:start;text-align:start;writing-mode:lr;line-height:125%;stroke-width:.40000001;stroke-miterlimit:4;stroke-dasharray:none"><tspan id="tspan3377" x="197.483 205.297 208.301 210.706 213.111 217.317 219.722 225.731 231.74 237.749" y="-420.297" style="font-size:9.6000001200000007px;font-variant:normal;font-weight:400;font-stretch:normal;writing-mode:lr;fill:#000;fill-opacity:1;fill-rule:nonzero;stroke:none;font-family:Arial;-inkscape-font-specification:Arial;font-style:normal;text-anchor:start;text-align:start;line-height:125%;stroke-width:.40000001;stroke-miterlimit:4;stroke-dasharray:none">Write ADDR</tspan><tspan id="tspan3379" x="214.912 217.317 222.726" y="-410.713" style="font-size:9.6000001200000007px;font-variant:normal;font-weight:400;font-stretch:normal;writing-mode:lr;fill:#000;fill-opacity:1;fill-rule:nonzero;stroke:none;font-family:Arial;-inkscape-font-specification:Arial;font-style:normal;text-anchor:start;text-align:start;line-height:125%;stroke-width:.40000001;stroke-miterlimit:4;stroke-dasharray:none">(S)</tspan></text><g id="g3381" transform="translate(147.22813,479.81011)" style="stroke-width:.4;stroke-miterlimit:4;stroke-dasharray:none"><path id="path3383" d="M 0,0 C 0,15.72 12.72,28.44 28.32,28.44 43.98,28.44 56.7,15.72 56.7,0 56.7,-15.72 43.98,-28.44 28.32,-28.44 12.72,-28.44 0,-15.72 0,0" style="fill:green;fill-opacity:1;fill-rule:evenodd;stroke:none;stroke-width:.4;stroke-miterlimit:4;stroke-dasharray:none"/></g><g id="g3385" transform="translate(147.22813,479.81011)" style="fill:#8cc63f;stroke-width:.4;stroke-miterlimit:4;stroke-dasharray:none"><path id="path3387" d="M 0,0 C 0,15.72 12.72,28.44 28.32,28.44 43.98,28.44 56.7,15.72 56.7,0 56.7,-15.72 43.98,-28.44 28.32,-28.44 12.72,-28.44 0,-15.72 0,0" style="fill:#8cc63f;stroke:#000;stroke-width:.4;stroke-linecap:round;stroke-linejoin:round;stroke-miterlimit:4;stroke-opacity:1;stroke-dasharray:none"/></g><text id="text3389" x="165.027" y="-481.037" transform="scale(0.99831175,-1.0016911)" style="font-size:9.6000000199999995px;-inkscape-font-specification:Arial;font-family:Arial;font-weight:400;font-style:normal;font-stretch:normal;font-variant:normal;text-anchor:start;text-align:start;writing-mode:lr;line-height:125%;fill:#000;stroke-width:.4;stroke-miterlimit:4;stroke-dasharray:none"><tspan id="tspan3391" x="165.027 167.432 174.643 180.655" y="-481.037" style="font-size:9.6000000199999995px;font-variant:normal;font-weight:400;font-stretch:normal;writing-mode:lr;fill:#000;fill-opacity:1;fill-rule:nonzero;stroke:none;font-family:Arial;-inkscape-font-specification:Arial;font-style:normal;text-anchor:start;text-align:start;line-height:125%;stroke-width:.4;stroke-miterlimit:4;stroke-dasharray:none">IDLE</tspan></text><text id="text3393" x="163.826" y="-470.791" transform="scale(0.99830575,-1.0016971)" style="font-size:9.6000001200000007px;-inkscape-font-specification:Arial;font-family:Arial;font-weight:400;font-style:normal;font-stretch:normal;font-variant:normal;text-anchor:start;text-align:start;writing-mode:lr;line-height:125%;fill:#000;stroke-width:.40000001;stroke-miterlimit:4;stroke-dasharray:none"><tspan id="tspan3395" x="163.826 166.831 171.037 175.847 180.053 184.86" y="-470.791" style="font-size:9.6000001200000007px;font-variant:normal;font-weight:400;font-stretch:normal;writing-mode:lr;fill:#000;fill-opacity:1;fill-rule:nonzero;stroke:none;font-family:Arial;-inkscape-font-specification:Arial;font-style:normal;text-anchor:start;text-align:start;line-height:125%;stroke-width:.40000001;stroke-miterlimit:4;stroke-dasharray:none">(0b01)</tspan></text><g id="g3397" transform="translate(202.96813,487.13011)" style="stroke-width:.4;stroke-miterlimit:4;stroke-dasharray:none"><path id="path3399" d="M 0,0 C 54.66,12.54 111.42,12.96 166.26,1.26" style="fill:none;stroke:#000;stroke-width:.4;stroke-linecap:round;stroke-linejoin:round;stroke-miterlimit:4;stroke-opacity:1;stroke-dasharray:none"/></g><g id="g3401" transform="translate(369.16813,491.93011)" style="stroke-width:.4;stroke-miterlimit:4;stroke-dasharray:none"><path id="path3403" d="M 0,0 5.82,-4.8 -1.5,-6.6 0,0" style="fill:#000;fill-opacity:1;fill-rule:evenodd;stroke:none;stroke-width:.4;stroke-miterlimit:4;stroke-dasharray:none"/></g><text id="text3405" x="287.034" y="-485.227" transform="scale(0.99830575,-1.0016971)" style="font-size:9.6000001200000007px;-inkscape-font-specification:Arial;font-family:Arial;font-weight:400;font-style:normal;font-stretch:normal;font-variant:normal;text-anchor:start;text-align:start;writing-mode:lr;line-height:125%;stroke-width:.40000001;stroke-miterlimit:4;stroke-dasharray:none"><tspan id="tspan3407" x="287.034" y="-485.227" style="font-size:9.6000001200000007px;font-variant:normal;font-weight:400;font-stretch:normal;writing-mode:lr;fill:#000;fill-opacity:1;fill-rule:nonzero;stroke:none;font-family:Arial;-inkscape-font-specification:Arial;font-style:normal;text-anchor:start;text-align:start;line-height:125%;stroke-width:.40000001;stroke-miterlimit:4;stroke-dasharray:none">S</tspan></text><g id="g3409" transform="translate(374.02813,479.81011)" style="fill:#f99d31;stroke-width:.4;stroke-miterlimit:4;stroke-dasharray:none"><path id="path3411" d="M 0,0 C 0,15.72 12.66,28.44 28.38,28.44 43.98,28.44 56.7,15.72 56.7,0 56.7,-15.72 43.98,-28.44 28.38,-28.44 12.66,-28.44 0,-15.72 0,0" style="fill:#f99d31;fill-opacity:1;fill-rule:evenodd;stroke:none;stroke-width:.4;stroke-miterlimit:4;stroke-dasharray:none"/></g><g id="g3413" transform="translate(374.02813,479.81011)" style="stroke-width:.4;stroke-miterlimit:4;stroke-dasharray:none"><path id="path3415" d="M 0,0 C 0,15.72 12.66,28.44 28.38,28.44 43.98,28.44 56.7,15.72 56.7,0 56.7,-15.72 43.98,-28.44 28.38,-28.44 12.66,-28.44 0,-15.72 0,0" style="fill:none;stroke:#000;stroke-width:.4;stroke-linecap:round;stroke-linejoin:round;stroke-miterlimit:4;stroke-opacity:1;stroke-dasharray:none"/></g><text id="text3417" x="389.806" y="-481.037" transform="scale(0.99831175,-1.0016911)" style="font-size:9.6000000199999995px;-inkscape-font-specification:Arial;font-family:Arial;font-weight:400;font-style:normal;font-stretch:normal;font-variant:normal;text-anchor:start;text-align:start;writing-mode:lr;line-height:125%;stroke-width:.40000000000000002;stroke-miterlimit:4;stroke-dasharray:none;fill:#000"><tspan id="tspan3419" x="389.806 397.013 404.221 410.899" y="-481.037" style="font-size:9.6000000199999995px;font-variant:normal;font-weight:400;font-stretch:normal;writing-mode:lr;fill:#000;fill-opacity:1;fill-rule:nonzero;stroke:none;font-family:Arial;-inkscape-font-specification:Arial;font-style:normal;text-anchor:start;text-align:start;line-height:125%;stroke-width:.40000000000000002;stroke-miterlimit:4;stroke-dasharray:none">BUSY</tspan></text><text id="text3421" x="391.011" y="-470.791" transform="scale(0.99830575,-1.0016971)" style="font-size:9.6000001200000007px;-inkscape-font-specification:Arial;font-family:Arial;font-weight:400;font-style:normal;font-stretch:normal;font-variant:normal;text-anchor:start;text-align:start;writing-mode:lr;line-height:125%;stroke-width:.40000001000000002;stroke-miterlimit:4;stroke-dasharray:none;fill:#000"><tspan id="tspan3423" x="391.011 394.016 398.222 403.092 407.298 412.105" y="-470.791" style="font-size:9.6000001200000007px;font-variant:normal;font-weight:400;font-stretch:normal;writing-mode:lr;fill:#000;fill-opacity:1;fill-rule:nonzero;stroke:none;font-family:Arial;-inkscape-font-specification:Arial;font-style:normal;text-anchor:start;text-align:start;line-height:125%;stroke-width:.40000001000000002;stroke-miterlimit:4;stroke-dasharray:none">(0b11)</tspan></text><g id="g3425" transform="translate(212.02813,470.51011)" style="stroke-width:.4;stroke-miterlimit:4;stroke-dasharray:none"><path id="path3427" d="M 0,0 C 53.82,-10.98 109.38,-10.32 162.96,1.92" style="fill:none;stroke:#000;stroke-width:.4;stroke-linecap:round;stroke-linejoin:round;stroke-miterlimit:4;stroke-opacity:1;stroke-dasharray:none"/></g><g id="g3429" transform="translate(213.52813,473.63011)" style="stroke-width:.4;stroke-miterlimit:4;stroke-dasharray:none"><path id="path3431" d="M 0,0 -10.56,-1.2 -1.38,-6.6 0,0" style="fill:#000;fill-opacity:1;fill-rule:evenodd;stroke:none;stroke-width:.4;stroke-miterlimit:4;stroke-dasharray:none"/></g><text id="text3433" x="266.6" y="-467.796" transform="scale(0.99830575,-1.0016971)" style="font-size:9.6000001200000007px;-inkscape-font-specification:Arial;font-family:Arial;font-weight:400;font-style:normal;font-stretch:normal;font-variant:normal;text-anchor:start;text-align:start;writing-mode:lr;line-height:125%;stroke-width:.40000001;stroke-miterlimit:4;stroke-dasharray:none"><tspan id="tspan3435" x="266.6 272.009 274.415 279.222 281.027 285.836 288.241 295.452 299.658 304.468 309.277" y="-467.796" style="font-size:9.6000001200000007px;font-variant:normal;font-weight:400;font-stretch:normal;writing-mode:lr;fill:#000;fill-opacity:1;fill-rule:nonzero;stroke:none;font-family:Arial;-inkscape-font-specification:Arial;font-style:normal;text-anchor:start;text-align:start;line-height:125%;stroke-width:.40000001;stroke-miterlimit:4;stroke-dasharray:none">P + Timeout</tspan></text><g id="g3437" transform="translate(260.62813,570.83011)" style="stroke-width:.4;stroke-miterlimit:4;stroke-dasharray:none"><path id="path3439" d="M 0,0 C 0,15.72 12.72,28.44 28.32,28.44 44.04,28.44 56.7,15.72 56.7,0 56.7,-15.72 44.04,-28.44 28.32,-28.44 12.72,-28.44 0,-15.72 0,0" style="fill:#fff;fill-opacity:1;fill-rule:evenodd;stroke:none;stroke-width:.4;stroke-miterlimit:4;stroke-dasharray:none"/></g><g id="g3441" transform="translate(260.62813,570.83011)" style="stroke-width:.40000000000000002;stroke-miterlimit:4;stroke-dasharray:none;fill:#dcdcdc"><path id="path3443" d="M 0,0 C 0,15.72 12.72,28.44 28.32,28.44 44.04,28.44 56.7,15.72 56.7,0 56.7,-15.72 44.04,-28.44 28.32,-28.44 12.72,-28.44 0,-15.72 0,0" style="fill:#dcdcdc;stroke:#000;stroke-width:.40000000000000002;stroke-linecap:round;stroke-linejoin:round;stroke-miterlimit:4;stroke-opacity:1;stroke-dasharray:none"/></g><text id="text3445" x="263.593" y="-571.783" transform="scale(0.99831175,-1.0016911)" style="font-size:9.6000000199999995px;-inkscape-font-specification:Arial;font-family:Arial;font-weight:400;font-style:normal;font-stretch:normal;font-variant:normal;text-anchor:start;text-align:start;writing-mode:lr;line-height:125%;stroke-width:.4;stroke-miterlimit:4;stroke-dasharray:none"><tspan id="tspan3447" x="263.593 270.804 278.015 285.226 292.437 299.651 308.668" y="-571.783" style="font-size:9.6000000199999995px;font-variant:normal;font-weight:400;font-stretch:normal;writing-mode:lr;fill:#000;fill-opacity:1;fill-rule:nonzero;stroke:none;font-family:Arial;-inkscape-font-specification:Arial;font-style:normal;text-anchor:start;text-align:start;line-height:125%;stroke-width:.4;stroke-miterlimit:4;stroke-dasharray:none">UNKNOWN</tspan></text><text id="text3449" x="277.418" y="-561.537" transform="scale(0.99830575,-1.0016971)" style="font-size:9.6000001200000007px;-inkscape-font-specification:Arial;font-family:Arial;font-weight:400;font-style:normal;font-stretch:normal;font-variant:normal;text-anchor:start;text-align:start;writing-mode:lr;line-height:125%;stroke-width:.40000001;stroke-miterlimit:4;stroke-dasharray:none"><tspan id="tspan3451" x="277.418 280.423 284.63 289.439 293.645 298.452" y="-561.537" style="font-size:9.6000001200000007px;font-variant:normal;font-weight:400;font-stretch:normal;writing-mode:lr;fill:#000;fill-opacity:1;fill-rule:nonzero;stroke:none;font-family:Arial;-inkscape-font-specification:Arial;font-style:normal;text-anchor:start;text-align:start;line-height:125%;stroke-width:.40000001;stroke-miterlimit:4;stroke-dasharray:none">(0b00)</tspan></text><g id="g3453" transform="translate(260.62813,388.79011)" style="stroke-width:.4;stroke-miterlimit:4;stroke-dasharray:none"><path id="path3455" d="M 0,0 C 0,15.72 12.72,28.44 28.32,28.44 44.04,28.44 56.7,15.72 56.7,0 56.7,-15.72 44.04,-28.44 28.32,-28.44 12.72,-28.44 0,-15.72 0,0" style="fill:#ff0;fill-opacity:1;fill-rule:evenodd;stroke:none;stroke-width:.4;stroke-miterlimit:4;stroke-dasharray:none"/></g><g id="g3457" transform="translate(260.62813,388.79011)" style="fill:#cdeae8;stroke-width:.4;stroke-miterlimit:4;stroke-dasharray:none"><path id="path3459" d="M 0,0 C 0,15.72 12.72,28.44 28.32,28.44 44.04,28.44 56.7,15.72 56.7,0 56.7,-15.72 44.04,-28.44 28.32,-28.44 12.72,-28.44 0,-15.72 0,0" style="fill:#cdeae8;stroke:#000;stroke-width:.4;stroke-linecap:round;stroke-linejoin:round;stroke-miterlimit:4;stroke-opacity:1;stroke-dasharray:none"/></g><text id="text3461" x="270.805" y="-390.23" transform="scale(0.99831175,-1.0016911)" style="font-size:9.6000000199999995px;-inkscape-font-specification:Arial;font-family:Arial;font-weight:400;font-style:normal;font-stretch:normal;font-variant:normal;text-anchor:start;text-align:start;writing-mode:lr;line-height:125%;stroke-width:.4;stroke-miterlimit:4;stroke-dasharray:none"><tspan id="tspan3463" x="270.805 278.019 287.036 294.247 300.858" y="-390.23" style="font-size:9.6000000199999995px;font-variant:normal;font-weight:400;font-stretch:normal;writing-mode:lr;fill:#000;fill-opacity:1;fill-rule:nonzero;stroke:none;font-family:Arial;-inkscape-font-specification:Arial;font-style:normal;text-anchor:start;text-align:start;line-height:125%;stroke-width:.4;stroke-miterlimit:4;stroke-dasharray:none">OWNER</tspan></text><text id="text3465" x="277.418" y="-380.045" transform="scale(0.99830575,-1.0016971)" style="font-size:9.6000001200000007px;-inkscape-font-specification:Arial;font-family:Arial;font-weight:400;font-style:normal;font-stretch:normal;font-variant:normal;text-anchor:start;text-align:start;writing-mode:lr;line-height:125%;stroke-width:.40000001;stroke-miterlimit:4;stroke-dasharray:none"><tspan id="tspan3467" x="277.418 280.423 284.63 289.439 293.645 298.452" y="-380.045" style="font-size:9.6000001200000007px;font-variant:normal;font-weight:400;font-stretch:normal;writing-mode:lr;fill:#000;fill-opacity:1;fill-rule:nonzero;stroke:none;font-family:Arial;-inkscape-font-specification:Arial;font-style:normal;text-anchor:start;text-align:start;line-height:125%;stroke-width:.40000001;stroke-miterlimit:4;stroke-dasharray:none">(0b10)</tspan></text><g id="g3469" transform="translate(399.46813,442.37011)" style="stroke-width:.4;stroke-miterlimit:4;stroke-dasharray:none"><path id="path3471" d="M 0,0 C -11.22,-36.12 -45,-60.3 -82.68,-59.22" style="fill:none;stroke:#000;stroke-width:.4;stroke-linecap:round;stroke-linejoin:round;stroke-miterlimit:4;stroke-opacity:1;stroke-dasharray:none"/></g><g id="g3473" transform="translate(395.98813,442.37011)" style="stroke-width:.4;stroke-miterlimit:4;stroke-dasharray:none"><path id="path3475" d="M 0,0 5.7,9 6.54,-1.62 0,0" style="fill:#000;fill-opacity:1;fill-rule:evenodd;stroke:none;stroke-width:.4;stroke-miterlimit:4;stroke-dasharray:none"/></g><text id="text3477" x="338.722" y="-419.698" transform="scale(0.99830575,-1.0016971)" style="font-size:9.6000001200000007px;-inkscape-font-specification:Arial;font-family:Arial;font-weight:400;font-style:normal;font-stretch:normal;font-variant:normal;text-anchor:start;text-align:start;writing-mode:lr;line-height:125%;stroke-width:.40000001;stroke-miterlimit:4;stroke-dasharray:none"><tspan id="tspan3479" x="338.722 344.731 347.735 352.544 354.949 357.354 360.357 364.563 366.968 369.373 374.182" y="-419.698" style="font-size:9.6000001200000007px;font-variant:normal;font-weight:400;font-stretch:normal;writing-mode:lr;fill:#000;fill-opacity:1;fill-rule:nonzero;stroke:none;font-family:Arial;-inkscape-font-specification:Arial;font-style:normal;text-anchor:start;text-align:start;line-height:125%;stroke-width:.40000001;stroke-miterlimit:4;stroke-dasharray:none">Arbitration</tspan><tspan id="tspan3481" x="350.742 355.552 360.361 364.567" y="-410.114" style="font-size:9.6000001200000007px;font-variant:normal;font-weight:400;font-stretch:normal;writing-mode:lr;fill:#000;fill-opacity:1;fill-rule:nonzero;stroke:none;font-family:Arial;-inkscape-font-specification:Arial;font-style:normal;text-anchor:start;text-align:start;line-height:125%;stroke-width:.40000001;stroke-miterlimit:4;stroke-dasharray:none">Lost</tspan></text><g id="g3483" transform="translate(209.44813,463.55011)" style="stroke-width:.4;stroke-miterlimit:4;stroke-dasharray:none"><path id="path3485" d="M 0,0 C 23.58,-13.68 44.7,-31.32 62.4,-52.08" style="fill:none;stroke:#000;stroke-width:.4;stroke-linecap:round;stroke-linejoin:round;stroke-miterlimit:4;stroke-opacity:1;stroke-dasharray:none"/></g><g id="g3487" transform="translate(208.54813,460.19011)" style="stroke-width:.4;stroke-miterlimit:4;stroke-dasharray:none"><path id="path3489" d="M 0,0 -7.14,7.8 3.3,5.88 0,0" style="fill:#000;fill-opacity:1;fill-rule:evenodd;stroke:none;stroke-width:.4;stroke-miterlimit:4;stroke-dasharray:none"/></g><g id="g3491" transform="translate(294.64813,360.89011)" style="stroke-width:.4;stroke-miterlimit:4;stroke-dasharray:none"><path id="path3493" d="m 0,0 c 4.5,-3.12 5.64,-9.36 2.52,-13.92 -3.12,-4.5 -9.3,-5.64 -13.86,-2.52 -3.78,2.64 -5.28,7.5 -3.66,11.82" style="fill:none;stroke:#000;stroke-width:.4;stroke-linecap:round;stroke-linejoin:round;stroke-miterlimit:4;stroke-opacity:1;stroke-dasharray:none"/></g><g id="g3495" transform="translate(276.52813,357.71011)" style="stroke-width:.4;stroke-miterlimit:4;stroke-dasharray:none"><path id="path3497" d="M 0,0 6.78,3.18 5.28,-4.14 0,0" style="fill:#000;fill-opacity:1;fill-rule:evenodd;stroke:none;stroke-width:.4;stroke-miterlimit:4;stroke-dasharray:none"/></g><text id="text3499" x="247.367" y="-435.93" transform="scale(0.99830575,-1.0016971)" style="font-size:9.6000001200000007px;-inkscape-font-specification:Arial;font-family:Arial;font-weight:400;font-style:normal;font-stretch:normal;font-variant:normal;text-anchor:start;text-align:start;writing-mode:lr;line-height:125%;stroke-width:.40000001;stroke-miterlimit:4;stroke-dasharray:none"><tspan id="tspan3501" x="247.367 253.376 258.186 265.396 272.607 276.813 281.623 286.432 288.837" y="-435.93" style="font-size:9.6000001200000007px;font-variant:normal;font-weight:400;font-stretch:normal;writing-mode:lr;fill:#000;fill-opacity:1;fill-rule:nonzero;stroke:none;font-family:Arial;-inkscape-font-specification:Arial;font-style:normal;text-anchor:start;text-align:start;line-height:125%;stroke-width:.40000001;stroke-miterlimit:4;stroke-dasharray:none">Command P</tspan><tspan id="tspan3503" x="304.464 312.278 315.282 317.687 320.092 324.298 326.703 332.712 338.721 344.73 350.739 351.942 354.346 359.756 362.76" y="-351.174" style="font-size:9.6000001200000007px;font-variant:normal;font-weight:400;font-stretch:normal;writing-mode:lr;fill:#000;fill-opacity:1;fill-rule:nonzero;stroke:none;font-family:Arial;-inkscape-font-specification:Arial;font-style:normal;text-anchor:start;text-align:start;line-height:125%;stroke-width:.40000001;stroke-miterlimit:4;stroke-dasharray:none">Write ADDR (Sr)</tspan></text><g id="g3505" transform="translate(430.12813,485.51011)" style="stroke-width:.4;stroke-miterlimit:4;stroke-dasharray:none"><path id="path3507" d="M 0,0 C 3.18,5.4 10.08,7.2 15.42,4.08 20.76,0.9 22.62,-6 19.5,-11.4 17.04,-15.6 12.3,-17.7 7.56,-16.8" style="fill:none;stroke:#000;stroke-width:.4;stroke-linecap:round;stroke-linejoin:round;stroke-miterlimit:4;stroke-opacity:1;stroke-dasharray:none"/></g><g id="g3509" transform="translate(436.42813,465.47011)" style="stroke-width:.4;stroke-miterlimit:4;stroke-dasharray:none"><path id="path3511" d="M 0,0 -6.3,8.64 3.9,5.52 0,0" style="fill:#000;fill-opacity:1;fill-rule:evenodd;stroke:none;stroke-width:.4;stroke-miterlimit:4;stroke-dasharray:none"/></g><text id="text3513" x="438.551" y="-494.271" transform="scale(0.99830575,-1.0016971)" style="font-size:9.6000001200000007px;-inkscape-font-specification:Arial;font-family:Arial;font-weight:400;font-style:normal;font-stretch:normal;font-variant:normal;text-anchor:start;text-align:start;writing-mode:lr;line-height:125%;stroke-width:.40000001;stroke-miterlimit:4;stroke-dasharray:none"><tspan id="tspan3515" x="438.551 443.96" y="-494.271" style="font-size:9.6000001200000007px;font-variant:normal;font-weight:400;font-stretch:normal;writing-mode:lr;fill:#000;fill-opacity:1;fill-rule:nonzero;stroke:none;font-family:Arial;-inkscape-font-specification:Arial;font-style:normal;text-anchor:start;text-align:start;line-height:125%;stroke-width:.40000001;stroke-miterlimit:4;stroke-dasharray:none">Sr</tspan></text></g></svg>