<svg xmlns="http://www.w3.org/2000/svg" xmlns:ev="http://www.w3.org/2001/xml-events" xmlns:xlink="http://www.w3.org/1999/xlink" width="778.918" height="227.412" class="st6" color-interpolation-filters="sRGB" viewBox="0 0 584.189 170.559" xml:space="preserve"><style type="text/css">.st1,.st2{fill:#fff;stroke:#164326;stroke-linecap:round;stroke-linejoin:round;stroke-width:.239998}.st2{fill:#bfbfbf}.st3{fill:#164326;font-family:Arial;font-size:.666664em}.st4{fill:none;stroke:none;stroke-linecap:round;stroke-linejoin:round;stroke-width:.719996}.st5{font-size:1em}.st6{fill:none;fill-rule:evenodd;font-size:12px;overflow:visible;stroke-linecap:square;stroke-miterlimit:3}</style><g><title>Page-1</title><g id="group1-1" transform="translate(0.241292,-141.972)"><title>工作表.1</title><g id="shape2-2"><title>Box.5</title><rect width="457.793" height="28.346" x="0" y="142.212" class="st1"/></g><g id="shape3-4" transform="translate(6.35825,-4.72409)"><title>Box</title><desc>MASTER ROW</desc><rect width="101.732" height="18.898" x="0" y="151.661" class="st2"/><text x="23.31" y="163.51" class="st3">MASTER ROW</text></g><g id="shape4-7" transform="translate(120.807,-4.72409)"><title>Box.2</title><desc>MASTER ROW</desc><rect width="101.732" height="18.898" x="0" y="151.661" class="st2"/><text x="23.31" y="163.51" class="st3">MASTER ROW</text></g><g id="shape5-10" transform="translate(235.256,-4.72409)"><title>Box.3</title><desc>MASTER ROW</desc><rect width="101.732" height="18.898" x="0" y="151.661" class="st2"/><text x="23.31" y="163.51" class="st3">MASTER ROW</text></g><g id="shape6-13" transform="translate(349.703,-4.72409)"><title>Box.4</title><desc>MASTER ROW</desc><rect width="101.732" height="18.898" x="0" y="151.661" class="st2"/><text x="23.31" y="163.51" class="st3">MASTER ROW</text></g></g><g id="group7-16" transform="translate(0.241292,-113.626)"><title>工作表.7</title><g id="shape8-17"><title>Box.5</title><rect width="457.793" height="28.346" x="0" y="142.212" class="st1"/></g><g id="shape9-19" transform="translate(6.35825,-4.72409)"><title>Box</title><desc>Logical Page 0 Revision 0</desc><rect width="101.732" height="18.898" x="0" y="151.661" class="st1"/><text x="4.61" y="163.51" class="st3">Logical Page 0 Revision 0</text></g><g id="shape10-22" transform="translate(120.807,-4.72409)"><title>Box.2</title><rect width="101.732" height="18.898" x="0" y="151.661" class="st1"/></g><g id="shape11-24" transform="translate(235.256,-4.72409)"><title>Box.3</title><rect width="101.732" height="18.898" x="0" y="151.661" class="st1"/></g><g id="shape12-26" transform="translate(349.703,-4.72409)"><title>Box.4</title><rect width="101.732" height="18.898" x="0" y="151.661" class="st1"/></g></g><g id="group13-28" transform="translate(0.241292,-85.2801)"><title>工作表.13</title><g id="shape14-29"><title>Box.5</title><rect width="457.793" height="28.346" x="0" y="142.212" class="st1"/></g><g id="shape15-31" transform="translate(6.35825,-4.72409)"><title>Box</title><desc>Logical Page 1 Revision 0</desc><rect width="101.732" height="18.898" x="0" y="151.661" class="st1"/><text x="4.61" y="163.51" class="st3">Logical Page 1 Revision 0</text></g><g id="shape16-34" transform="translate(120.807,-4.72409)"><title>Box.2</title><rect width="101.732" height="18.898" x="0" y="151.661" class="st1"/></g><g id="shape17-36" transform="translate(235.256,-4.72409)"><title>Box.3</title><rect width="101.732" height="18.898" x="0" y="151.661" class="st1"/></g><g id="shape18-38" transform="translate(349.703,-4.72409)"><title>Box.4</title><rect width="101.732" height="18.898" x="0" y="151.661" class="st1"/></g></g><g id="group19-40" transform="translate(0.241292,-56.9338)"><title>工作表.19</title><g id="shape20-41"><title>Box.5</title><rect width="457.793" height="28.346" x="0" y="142.212" class="st1"/></g><g id="shape21-43" transform="translate(6.35825,-4.72409)"><title>Box</title><desc>Logical Page 2 Revision 0</desc><rect width="101.732" height="18.898" x="0" y="151.661" class="st1"/><text x="4.61" y="163.51" class="st3">Logical Page 2 Revision 0</text></g><g id="shape22-46" transform="translate(120.807,-4.72409)"><title>Box.2</title><rect width="101.732" height="18.898" x="0" y="151.661" class="st1"/></g><g id="shape23-48" transform="translate(235.256,-4.72409)"><title>Box.3</title><rect width="101.732" height="18.898" x="0" y="151.661" class="st1"/></g><g id="shape24-50" transform="translate(349.703,-4.72409)"><title>Box.4</title><rect width="101.732" height="18.898" x="0" y="151.661" class="st1"/></g></g><g id="group25-52" transform="translate(0.241292,-28.5874)"><title>工作表.25</title><g id="shape26-53"><title>Box.5</title><rect width="457.793" height="28.346" x="0" y="142.212" class="st1"/></g><g id="shape27-55" transform="translate(6.35825,-4.72409)"><title>Box</title><desc>Logical Page 3 Revision 0</desc><rect width="101.732" height="18.898" x="0" y="151.661" class="st1"/><text x="4.61" y="163.51" class="st3">Logical Page 3 Revision 0</text></g><g id="shape28-58" transform="translate(120.807,-4.72409)"><title>Box.2</title><rect width="101.732" height="18.898" x="0" y="151.661" class="st1"/></g><g id="shape29-60" transform="translate(235.256,-4.72409)"><title>Box.3</title><rect width="101.732" height="18.898" x="0" y="151.661" class="st1"/></g><g id="shape30-62" transform="translate(349.703,-4.72409)"><title>Box.4</title><rect width="101.732" height="18.898" x="0" y="151.661" class="st1"/></g></g><g id="group31-64" transform="translate(0.241292,-0.241098)"><title>工作表.31</title><g id="shape32-65"><title>Box.5</title><rect width="457.793" height="28.346" x="0" y="142.212" class="st1"/></g><g id="shape33-67" transform="translate(6.35825,-4.72409)"><title>Box</title><desc>SPARE ROW</desc><rect width="101.732" height="18.898" x="0" y="151.661" class="st2"/><text x="26.42" y="163.51" class="st3">SPARE ROW</text></g><g id="shape34-70" transform="translate(120.807,-4.72409)"><title>Box.2</title><desc>SPARE ROW</desc><rect width="101.732" height="18.898" x="0" y="151.661" class="st2"/><text x="26.42" y="163.51" class="st3">SPARE ROW</text></g><g id="shape35-73" transform="translate(235.256,-4.72409)"><title>Box.3</title><desc>SPARE ROW</desc><rect width="101.732" height="18.898" x="0" y="151.661" class="st2"/><text x="26.42" y="163.51" class="st3">SPARE ROW</text></g><g id="shape36-76" transform="translate(349.703,-4.72409)"><title>Box.4</title><desc>SPARE ROW</desc><rect width="101.732" height="18.898" x="0" y="151.661" class="st2"/><text x="26.42" y="163.51" class="st3">SPARE ROW</text></g></g><g id="shape37-79" transform="translate(458.208,-147.232)"><title>工作表.37</title><desc>End of RWW EEPROM</desc><rect width="125.26" height="16" x="0" y="154.559" class="st4"/><text x="4" y="164.96" class="st3">End<tspan class="st5"> </tspan><tspan class="st5">of</tspan> RWW EEPROM</text></g><g id="shape38-84" transform="translate(457.31,-6.41321)"><title>工作表.38</title><desc>Start RWW EEPROM</desc><rect width="126.157" height="16" x="0" y="154.559" class="st4"/><text x="4" y="164.96" class="st3">Start of RWW EEPROM</text></g></g></svg>