<svg xmlns="http://www.w3.org/2000/svg" xmlns:ev="http://www.w3.org/2001/xml-events" xmlns:xlink="http://www.w3.org/1999/xlink" width="778.918" height="227.412" class="st6" color-interpolation-filters="sRGB" viewBox="0 0 584.189 170.559" xml:space="preserve"><style type="text/css">.st1,.st2{fill:#fff;stroke:#164326;stroke-linecap:round;stroke-linejoin:round;stroke-width:.239999}.st2{fill:#bfbfbf}.st3{fill:#164326;font-family:Arial;font-size:.666664em}.st4{font-size:1em}.st5{fill:none;stroke:none;stroke-linecap:round;stroke-linejoin:round;stroke-width:.719998}.st6{fill:none;fill-rule:evenodd;font-size:12px;overflow:visible;stroke-linecap:square;stroke-miterlimit:3}</style><g><title>Page-1</title><g id="group1-1" transform="translate(0.240896,-141.972)"><title>工作表.1</title><g id="shape2-2"><title>Box.5</title><rect width="457.794" height="28.346" x="0" y="142.212" class="st1"/></g><g id="shape3-4" transform="translate(6.35826,-4.7243)"><title>Box</title><desc>MASTER ROW</desc><rect width="101.732" height="18.898" x="0" y="151.661" class="st2"/><text x="23.31" y="163.51" class="st3">MASTER ROW</text></g><g id="shape4-7" transform="translate(120.807,-4.7243)"><title>Box.2</title><desc>MASTER ROW</desc><rect width="101.732" height="18.898" x="0" y="151.661" class="st2"/><text x="23.31" y="163.51" class="st3">MASTER ROW</text></g><g id="shape5-10" transform="translate(235.256,-4.7243)"><title>Box.3</title><desc>MASTER ROW</desc><rect width="101.732" height="18.898" x="0" y="151.661" class="st2"/><text x="23.31" y="163.51" class="st3">MASTER ROW</text></g><g id="shape6-13" transform="translate(349.704,-4.7243)"><title>Box.4</title><desc>MASTER ROW</desc><rect width="101.732" height="18.898" x="0" y="151.661" class="st2"/><text x="23.31" y="163.51" class="st3">MASTER ROW</text></g></g><g id="group7-16" transform="translate(0.240896,-113.626)"><title>工作表.7</title><g id="shape8-17"><title>Box.5</title><rect width="457.794" height="28.346" x="0" y="142.212" class="st1"/></g><g id="shape9-19" transform="translate(6.35826,-4.7243)"><title>Box</title><desc>SPARE ROW</desc><rect width="101.732" height="18.898" x="0" y="151.661" class="st2"/><text x="26.42" y="163.51" class="st3">SPARE ROW</text></g><g id="shape10-22" transform="translate(120.807,-4.7243)"><title>Box.2</title><desc>SPARE ROW</desc><rect width="101.732" height="18.898" x="0" y="151.661" class="st2"/><text x="26.42" y="163.51" class="st3">SPARE ROW</text></g><g id="shape11-25" transform="translate(235.256,-4.7243)"><title>Box.3</title><desc>SPARE ROW</desc><rect width="101.732" height="18.898" x="0" y="151.661" class="st2"/><text x="26.42" y="163.51" class="st3">SPARE ROW</text></g><g id="shape12-28" transform="translate(349.704,-4.7243)"><title>Box.4</title><desc>SPARE ROW</desc><rect width="101.732" height="18.898" x="0" y="151.661" class="st2"/><text x="26.42" y="163.51" class="st3">SPARE ROW</text></g></g><g id="group13-31" transform="translate(0.240896,-85.2797)"><title>工作表.13</title><g id="shape14-32"><title>Box.5</title><rect width="457.794" height="28.346" x="0" y="142.212" class="st1"/></g><g id="shape15-34" transform="translate(6.35826,-4.7243)"><title>Box</title><desc>Logical Page 2 Revision 0</desc><rect width="101.732" height="18.898" x="0" y="151.661" class="st1"/><text x="4.61" y="163.51" class="st3">Logical Page <tspan class="st4">1</tspan> Revision 0</text></g><g id="shape16-38" transform="translate(120.807,-4.7243)"><title>Box.2</title><desc>Logical Page 3 Revision 0</desc><rect width="101.732" height="18.898" x="0" y="151.661" class="st1"/></g><g id="shape17-40" transform="translate(235.256,-4.7243)"><title>Box.3</title><rect width="101.732" height="18.898" x="0" y="151.661" class="st1"/></g><g id="shape18-42" transform="translate(349.704,-4.7243)"><title>Box.4</title><rect width="101.732" height="18.898" x="0" y="151.661" class="st1"/></g></g><g id="group19-44" transform="translate(0.240896,-56.9333)"><title>工作表.19</title><g id="shape20-45"><title>Box.5</title><rect width="457.794" height="28.346" x="0" y="142.212" class="st1"/></g><g id="shape21-47" transform="translate(6.35826,-4.7243)"><title>Box</title><desc>Logical Page 4 Revision 0</desc><rect width="101.732" height="18.898" x="0" y="151.661" class="st1"/><text x="4.61" y="163.51" class="st3">Logical Page <tspan class="st4">2</tspan> Revision 0</text></g><g id="shape22-51" transform="translate(120.807,-4.7243)"><title>Box.2</title><desc>Logical Page 5 Revision 0</desc><rect width="101.732" height="18.898" x="0" y="151.661" class="st1"/></g><g id="shape23-53" transform="translate(235.256,-4.7243)"><title>Box.3</title><rect width="101.732" height="18.898" x="0" y="151.661" class="st1"/></g><g id="shape24-55" transform="translate(349.704,-4.7243)"><title>Box.4</title><rect width="101.732" height="18.898" x="0" y="151.661" class="st1"/></g></g><g id="group25-57" transform="translate(0.240896,-28.5869)"><title>工作表.25</title><g id="shape26-58"><title>Box.5</title><rect width="457.794" height="28.346" x="0" y="142.212" class="st1"/></g><g id="shape27-60" transform="translate(6.35826,-4.7243)"><title>Box</title><desc>Logical Page 6 Revision 0</desc><rect width="101.732" height="18.898" x="0" y="151.661" class="st1"/><text x="4.61" y="163.51" class="st3">Logical Page <tspan class="st4">3</tspan> Revision 0</text></g><g id="shape28-64" transform="translate(120.807,-4.7243)"><title>Box.2</title><desc>Logical Page 7 Revision 0</desc><rect width="101.732" height="18.898" x="0" y="151.661" class="st1"/></g><g id="shape29-66" transform="translate(235.256,-4.7243)"><title>Box.3</title><rect width="101.732" height="18.898" x="0" y="151.661" class="st1"/></g><g id="shape30-68" transform="translate(349.704,-4.7243)"><title>Box.4</title><rect width="101.732" height="18.898" x="0" y="151.661" class="st1"/></g></g><g id="group31-70" transform="translate(0.240896,-0.240499)"><title>工作表.31</title><g id="shape32-71"><title>Box.5</title><rect width="457.794" height="28.346" x="0" y="142.212" class="st1"/></g><g id="shape33-73" transform="translate(6.35826,-4.7243)"><title>Box</title><desc>Logical Page 0 Revision 3</desc><rect width="101.732" height="18.898" x="0" y="151.661" class="st1"/><text x="4.61" y="163.51" class="st3">Logical Page <tspan class="st4">0</tspan> Revision <tspan class="st4">4</tspan></text></g><g id="shape34-78" transform="translate(120.807,-4.7243)"><title>Box.2</title><desc>Logical Page 1 Revision 0</desc><rect width="101.732" height="18.898" x="0" y="151.661" class="st1"/></g><g id="shape35-80" transform="translate(235.256,-4.7243)"><title>Box.3</title><rect width="101.732" height="18.898" x="0" y="151.661" class="st1"/></g><g id="shape36-82" transform="translate(349.704,-4.7243)"><title>Box.4</title><rect width="101.732" height="18.898" x="0" y="151.661" class="st1"/></g></g><g id="shape37-84" transform="translate(458.209,-147.232)"><title>工作表.37</title><desc>End of Flash</desc><rect width="125.26" height="16" x="0" y="154.559" class="st5"/><text x="4" y="164.96" class="st3">End of <tspan class="st4">RWW EEPROM</tspan></text></g><g id="shape38-88" transform="translate(457.311,-6.41322)"><title>工作表.38</title><desc>End of FLASH – EEPROM Rows</desc><rect width="126.157" height="16" x="0" y="154.559" class="st5"/><text x="4" y="164.96" class="st3">Start<tspan class="st4"> </tspan><tspan class="st4">of </tspan>RWW<tspan class="st4"> </tspan><tspan class="st4">EEPROM</tspan></text></g></g></svg>