<svg xmlns="http://www.w3.org/2000/svg" width="168.219" height="66.172" class="st8" color-interpolation-filters="sRGB" viewBox="0 0 126.164 49.629" xml:space="preserve"><style type="text/css">.st1{fill:#fff;stroke:#164326;stroke-linecap:round;stroke-linejoin:round;stroke-width:.24}.st2{fill:#164326;font-family:Arial;font-size:.666664em}.st3,.st4{fill:#d9d9d9;stroke:#164326;stroke-linecap:round;stroke-linejoin:round;stroke-width:.24}.st4{fill:none;stroke:none;stroke-width:.72}.st5{fill:#164326;font-family:Arial;font-size:.499992em}.st6{fill:#000}.st7{stroke:#000;stroke-linecap:round;stroke-linejoin:round;stroke-width:.239976}.st8{fill:none;fill-rule:evenodd;font-size:12;overflow:visible;stroke-linecap:square;stroke-miterlimit:3}</style><g><title>Page-1</title><g id="group3-1" transform="translate(0.72,-13.9483)"><title>Sheet.3</title><g id="shape1-2" transform="translate(34.6457,-1.13687E-013)"><title>Box</title><desc>User Page Data</desc><rect width="90.079" height="20.787" x="0" y="28.842" class="st1"/><text x="16.58" y="41.64" class="st2">User Page Data</text></g><g id="shape2-5"><title>Box.2</title><desc>Header</desc><rect width="34.761" height="20.787" x="0" y="28.842" class="st3"/><text x="4.26" y="41.64" class="st2">Header</text></g></g><g id="shape4-8" transform="translate(0.72,-41.8175)"><title>Sheet.4</title><desc>NVMCTRL_PAGE_SIZE Bytes (64)</desc><rect width="124.724" height="7.091" x="0" y="42.538" class="st4"/><text x="15.02" y="47.88" class="st5">NVMCTRL_PAGE_SIZE Bytes (64)</text></g><g id="shape5-11" transform="translate(0.72,-0.72)"><title>Sheet.5</title><desc>4 Bytes</desc><rect width="35.433" height="7.091" x="0" y="42.538" class="st4"/><text x="7.71" y="47.88" class="st5">4 Bytes</text></g><g id="shape6-14" transform="translate(36.1531,-0.72)"><title>Sheet.6</title><desc>60 Bytes</desc><rect width="89.291" height="7.091" x="0" y="42.538" class="st4"/><text x="32.97" y="47.88" class="st5">60 Bytes</text></g><g id="shape7-17" transform="translate(0.72,-8.75392)"><title>Single arrowhead</title><path d="M4.25 47.5 L4.25 51.75 L0 49.63 L4.25 47.5 Z M30.47 47.5 L30.47 51.75 L34.72 49.63 L30.47 47.5 Z" class="st6"/><path d="M4.25 47.5 L4.25 51.75 L0 49.63 L4.25 47.5" class="st7"/><path d="M30.47 47.5 L30.47 51.75 L34.72 49.63 L30.47 47.5" class="st7"/><path d="M4.25 49.63 L30.47 49.63" class="st7"/></g><g id="shape8-22" transform="translate(35.4444,-8.75392)"><title>Single arrowhead.8</title><path d="M4.25 47.5 L4.25 51.75 L0 49.63 L4.25 47.5 Z M85.04 47.5 L85.04 51.75 L89.29 49.63 L85.04 47.5 Z" class="st6"/><path d="M4.25 47.5 L4.25 51.75 L0 49.63 L4.25 47.5" class="st7"/><path d="M85.04 47.5 L85.04 51.75 L89.29 49.63 L85.04 47.5" class="st7"/><path d="M4.25 49.63 L85.04 49.63" class="st7"/></g><g id="shape9-27" transform="translate(0.72,-40.405)"><title>Single arrowhead.9</title><path d="M4.25 47.5 L4.25 51.75 L0 49.63 L4.25 47.5 Z M120.47 47.5 L120.47 51.75 L124.72 49.63 L120.47 47.5 Z" class="st6"/><path d="M4.25 47.5 L4.25 51.75 L0 49.63 L4.25 47.5" class="st7"/><path d="M120.47 47.5 L120.47 51.75 L124.72 49.63 L120.47 47.5" class="st7"/><path d="M4.25 49.63 L120.47 49.63" class="st7"/></g></g></svg>